ISO-10303-21;
HEADER;
/* Generated by software containing ST-Developer
 * from STEP Tools, Inc. (www.steptools.com) 
 */

FILE_DESCRIPTION(
/* description */ (
'CAx-IF Rec.Pracs.---Representation and Presentation of Product Manufa
cturing Information (PMI)---4.0---2014-10-13',
'CAx-IF Rec.Pracs.---3D Tessellated Geometry---0.4---2014-09-14','2;1',
'CAx-IF Rec.Pracs.---User Defined Attributes---1.5---2016-08-15'),
/* implementation_level */ '2;1');

FILE_NAME(
/* name */ '000681_A;1-External Circlip',
/* time_stamp */ '2022-12-15T16:48:33+05:00',
/* author */ (''),
/* organization */ (''),
/* preprocessor_version */ 'ST-DEVELOPER v16.7',
/* originating_system */ 'SIEMENS PLM Software NX 1915',
/* authorisation */ $);

FILE_SCHEMA (('AP242_MANAGED_MODEL_BASED_3D_ENGINEERING_MIM_LF { 1 0 10303 442 1 1 4 }'));
ENDSEC;

DATA;
#10=MECHANICAL_DESIGN_AND_DRAUGHTING_RELATIONSHIP('','',#18,#19);
#11=MECHANICAL_DESIGN_AND_DRAUGHTING_RELATIONSHIP('','',#20,#19);
#12=MECHANICAL_DESIGN_AND_DRAUGHTING_RELATIONSHIP('','',#21,#19);
#13=MECHANICAL_DESIGN_AND_DRAUGHTING_RELATIONSHIP('','',#22,#19);
#14=MECHANICAL_DESIGN_AND_DRAUGHTING_RELATIONSHIP('','',#23,#19);
#15=MECHANICAL_DESIGN_AND_DRAUGHTING_RELATIONSHIP('','',#24,#19);
#16=MECHANICAL_DESIGN_AND_DRAUGHTING_RELATIONSHIP('','',#25,#19);
#17=MECHANICAL_DESIGN_AND_DRAUGHTING_RELATIONSHIP('','',#26,#19);
#18=DRAUGHTING_MODEL('Top',(#45,#36),#439);
#19=DRAUGHTING_MODEL('',(#37),#439);
#20=DRAUGHTING_MODEL('Front',(#46,#38),#439);
#21=DRAUGHTING_MODEL('Right',(#47,#39),#439);
#22=DRAUGHTING_MODEL('Back',(#48,#40),#439);
#23=DRAUGHTING_MODEL('Bottom',(#49,#41),#439);
#24=DRAUGHTING_MODEL('Left',(#50,#42),#439);
#25=DRAUGHTING_MODEL('Isometric',(#51,#43),#439);
#26=DRAUGHTING_MODEL('Trimetric',(#52,#44),#439);
#27=REPRESENTATION_MAP(#254,$);
#28=REPRESENTATION_MAP(#254,$);
#29=REPRESENTATION_MAP(#254,$);
#30=REPRESENTATION_MAP(#254,$);
#31=REPRESENTATION_MAP(#254,$);
#32=REPRESENTATION_MAP(#254,$);
#33=REPRESENTATION_MAP(#254,$);
#34=REPRESENTATION_MAP(#254,$);
#35=REPRESENTATION_MAP(#254,$);
#36=MAPPED_ITEM('',#27,#254);
#37=MAPPED_ITEM('',#28,#254);
#38=MAPPED_ITEM('',#29,#254);
#39=MAPPED_ITEM('',#30,#254);
#40=MAPPED_ITEM('',#31,#254);
#41=MAPPED_ITEM('',#32,#254);
#42=MAPPED_ITEM('',#33,#254);
#43=MAPPED_ITEM('',#34,#254);
#44=MAPPED_ITEM('',#35,#254);
#45=CAMERA_MODEL_D3('Top',#255,#53);
#46=CAMERA_MODEL_D3('Front',#257,#54);
#47=CAMERA_MODEL_D3('Right',#259,#55);
#48=CAMERA_MODEL_D3('Back',#261,#56);
#49=CAMERA_MODEL_D3('Bottom',#263,#57);
#50=CAMERA_MODEL_D3('Left',#265,#58);
#51=CAMERA_MODEL_D3('Isometric',#267,#59);
#52=CAMERA_MODEL_D3('Trimetric',#269,#60);
#53=VIEW_VOLUME(.PARALLEL.,#306,0.,0.,.F.,0.,.F.,.F.,#61);
#54=VIEW_VOLUME(.PARALLEL.,#309,0.,0.,.F.,0.,.F.,.F.,#62);
#55=VIEW_VOLUME(.PARALLEL.,#312,0.,0.,.F.,0.,.F.,.F.,#63);
#56=VIEW_VOLUME(.PARALLEL.,#315,0.,0.,.F.,0.,.F.,.F.,#64);
#57=VIEW_VOLUME(.PARALLEL.,#318,0.,0.,.F.,0.,.F.,.F.,#65);
#58=VIEW_VOLUME(.PARALLEL.,#321,0.,0.,.F.,0.,.F.,.F.,#66);
#59=VIEW_VOLUME(.PARALLEL.,#324,0.,0.,.F.,0.,.F.,.F.,#67);
#60=VIEW_VOLUME(.PARALLEL.,#327,0.,0.,.F.,0.,.F.,.F.,#68);
#61=PLANAR_BOX('',0.0573449193279923,0.0573449193279923,#256);
#62=PLANAR_BOX('',0.554530129983217,0.554530129983217,#258);
#63=PLANAR_BOX('',0.554530129983217,0.554530129983217,#260);
#64=PLANAR_BOX('',0.554530129983217,0.554530129983217,#262);
#65=PLANAR_BOX('',0.0573449193279923,0.0573449193279923,#264);
#66=PLANAR_BOX('',0.554530129983217,0.554530129983217,#266);
#67=PLANAR_BOX('',0.543994125665979,0.543994125665979,#268);
#68=PLANAR_BOX('',0.575923539769252,0.575923539769252,#270);
#69=SHAPE_ASPECT('','Solid',#444,.F.);
#70=SHAPE_ASPECT('','Solid',#444,.F.);
#71=SHAPE_ASPECT('','Solid',#444,.F.);
#72=SHAPE_ASPECT('','Solid',#444,.F.);
#73=SHAPE_ASPECT('','Solid',#444,.F.);
#74=SHAPE_ASPECT('','Solid',#444,.F.);
#75=SHAPE_ASPECT('','Solid',#444,.F.);
#76=SHAPE_ASPECT('','Solid',#444,.F.);
#77=SHAPE_ASPECT('','Solid',#444,.F.);
#78=SHAPE_ASPECT('','Solid',#444,.F.);
#79=SHAPE_ASPECT('','Solid',#444,.F.);
#80=SHAPE_ASPECT('','Solid',#444,.F.);
#81=SHAPE_ASPECT('','Solid',#444,.F.);
#82=SHAPE_ASPECT('','Solid',#444,.F.);
#83=SHAPE_REPRESENTATION_RELATIONSHIP('','',#253,#97);
#84=SHAPE_REPRESENTATION_RELATIONSHIP('','',#253,#98);
#85=SHAPE_REPRESENTATION_RELATIONSHIP('','',#253,#99);
#86=SHAPE_REPRESENTATION_RELATIONSHIP('','',#253,#100);
#87=SHAPE_REPRESENTATION_RELATIONSHIP('','',#253,#101);
#88=SHAPE_REPRESENTATION_RELATIONSHIP('','',#253,#102);
#89=SHAPE_REPRESENTATION_RELATIONSHIP('','',#253,#103);
#90=SHAPE_REPRESENTATION_RELATIONSHIP('','',#253,#104);
#91=SHAPE_REPRESENTATION_RELATIONSHIP('','',#253,#105);
#92=SHAPE_REPRESENTATION_RELATIONSHIP('','',#253,#106);
#93=SHAPE_REPRESENTATION_RELATIONSHIP('','',#253,#107);
#94=SHAPE_REPRESENTATION_RELATIONSHIP('','',#253,#108);
#95=SHAPE_REPRESENTATION_RELATIONSHIP('','',#253,#109);
#96=SHAPE_REPRESENTATION_RELATIONSHIP('','',#253,#110);
#97=TESSELLATED_SHAPE_REPRESENTATION('',(#238),#439);
#98=TESSELLATED_SHAPE_REPRESENTATION('',(#239),#439);
#99=TESSELLATED_SHAPE_REPRESENTATION('',(#240),#439);
#100=TESSELLATED_SHAPE_REPRESENTATION('',(#241),#439);
#101=TESSELLATED_SHAPE_REPRESENTATION('',(#242),#439);
#102=TESSELLATED_SHAPE_REPRESENTATION('',(#243),#439);
#103=TESSELLATED_SHAPE_REPRESENTATION('',(#244),#439);
#104=TESSELLATED_SHAPE_REPRESENTATION('',(#245),#439);
#105=TESSELLATED_SHAPE_REPRESENTATION('',(#246),#439);
#106=TESSELLATED_SHAPE_REPRESENTATION('',(#247),#439);
#107=TESSELLATED_SHAPE_REPRESENTATION('',(#248),#439);
#108=TESSELLATED_SHAPE_REPRESENTATION('',(#249),#439);
#109=TESSELLATED_SHAPE_REPRESENTATION('',(#250),#439);
#110=TESSELLATED_SHAPE_REPRESENTATION('',(#251),#439);
#111=STYLED_ITEM('',(#125),#210);
#112=STYLED_ITEM('',(#126),#211);
#113=STYLED_ITEM('',(#127),#212);
#114=STYLED_ITEM('',(#128),#213);
#115=STYLED_ITEM('',(#129),#214);
#116=STYLED_ITEM('',(#130),#215);
#117=STYLED_ITEM('',(#131),#216);
#118=STYLED_ITEM('',(#132),#217);
#119=STYLED_ITEM('',(#133),#218);
#120=STYLED_ITEM('',(#134),#219);
#121=STYLED_ITEM('',(#135),#220);
#122=STYLED_ITEM('',(#136),#221);
#123=STYLED_ITEM('',(#137),#222);
#124=STYLED_ITEM('',(#138),#223);
#125=PRESENTATION_STYLE_ASSIGNMENT((#139));
#126=PRESENTATION_STYLE_ASSIGNMENT((#140));
#127=PRESENTATION_STYLE_ASSIGNMENT((#141));
#128=PRESENTATION_STYLE_ASSIGNMENT((#142));
#129=PRESENTATION_STYLE_ASSIGNMENT((#143));
#130=PRESENTATION_STYLE_ASSIGNMENT((#144));
#131=PRESENTATION_STYLE_ASSIGNMENT((#145));
#132=PRESENTATION_STYLE_ASSIGNMENT((#146));
#133=PRESENTATION_STYLE_ASSIGNMENT((#147));
#134=PRESENTATION_STYLE_ASSIGNMENT((#148));
#135=PRESENTATION_STYLE_ASSIGNMENT((#149));
#136=PRESENTATION_STYLE_ASSIGNMENT((#150));
#137=PRESENTATION_STYLE_ASSIGNMENT((#151));
#138=PRESENTATION_STYLE_ASSIGNMENT((#152));
#139=SURFACE_STYLE_USAGE(.BOTH.,#153);
#140=SURFACE_STYLE_USAGE(.BOTH.,#154);
#141=SURFACE_STYLE_USAGE(.BOTH.,#155);
#142=SURFACE_STYLE_USAGE(.BOTH.,#156);
#143=SURFACE_STYLE_USAGE(.BOTH.,#157);
#144=SURFACE_STYLE_USAGE(.BOTH.,#158);
#145=SURFACE_STYLE_USAGE(.BOTH.,#159);
#146=SURFACE_STYLE_USAGE(.BOTH.,#160);
#147=SURFACE_STYLE_USAGE(.BOTH.,#161);
#148=SURFACE_STYLE_USAGE(.BOTH.,#162);
#149=SURFACE_STYLE_USAGE(.BOTH.,#163);
#150=SURFACE_STYLE_USAGE(.BOTH.,#164);
#151=SURFACE_STYLE_USAGE(.BOTH.,#165);
#152=SURFACE_STYLE_USAGE(.BOTH.,#166);
#153=SURFACE_SIDE_STYLE('',(#167));
#154=SURFACE_SIDE_STYLE('',(#168));
#155=SURFACE_SIDE_STYLE('',(#169));
#156=SURFACE_SIDE_STYLE('',(#170));
#157=SURFACE_SIDE_STYLE('',(#171));
#158=SURFACE_SIDE_STYLE('',(#172));
#159=SURFACE_SIDE_STYLE('',(#173));
#160=SURFACE_SIDE_STYLE('',(#174));
#161=SURFACE_SIDE_STYLE('',(#175));
#162=SURFACE_SIDE_STYLE('',(#176));
#163=SURFACE_SIDE_STYLE('',(#177));
#164=SURFACE_SIDE_STYLE('',(#178));
#165=SURFACE_SIDE_STYLE('',(#179));
#166=SURFACE_SIDE_STYLE('',(#180));
#167=SURFACE_STYLE_FILL_AREA(#181);
#168=SURFACE_STYLE_FILL_AREA(#182);
#169=SURFACE_STYLE_FILL_AREA(#183);
#170=SURFACE_STYLE_FILL_AREA(#184);
#171=SURFACE_STYLE_FILL_AREA(#185);
#172=SURFACE_STYLE_FILL_AREA(#186);
#173=SURFACE_STYLE_FILL_AREA(#187);
#174=SURFACE_STYLE_FILL_AREA(#188);
#175=SURFACE_STYLE_FILL_AREA(#189);
#176=SURFACE_STYLE_FILL_AREA(#190);
#177=SURFACE_STYLE_FILL_AREA(#191);
#178=SURFACE_STYLE_FILL_AREA(#192);
#179=SURFACE_STYLE_FILL_AREA(#193);
#180=SURFACE_STYLE_FILL_AREA(#194);
#181=FILL_AREA_STYLE('',(#195));
#182=FILL_AREA_STYLE('',(#196));
#183=FILL_AREA_STYLE('',(#197));
#184=FILL_AREA_STYLE('',(#198));
#185=FILL_AREA_STYLE('',(#199));
#186=FILL_AREA_STYLE('',(#200));
#187=FILL_AREA_STYLE('',(#201));
#188=FILL_AREA_STYLE('',(#202));
#189=FILL_AREA_STYLE('',(#203));
#190=FILL_AREA_STYLE('',(#204));
#191=FILL_AREA_STYLE('',(#205));
#192=FILL_AREA_STYLE('',(#206));
#193=FILL_AREA_STYLE('',(#207));
#194=FILL_AREA_STYLE('',(#208));
#195=FILL_AREA_STYLE_COLOUR('',#209);
#196=FILL_AREA_STYLE_COLOUR('',#209);
#197=FILL_AREA_STYLE_COLOUR('',#209);
#198=FILL_AREA_STYLE_COLOUR('',#209);
#199=FILL_AREA_STYLE_COLOUR('',#209);
#200=FILL_AREA_STYLE_COLOUR('',#209);
#201=FILL_AREA_STYLE_COLOUR('',#209);
#202=FILL_AREA_STYLE_COLOUR('',#209);
#203=FILL_AREA_STYLE_COLOUR('',#209);
#204=FILL_AREA_STYLE_COLOUR('',#209);
#205=FILL_AREA_STYLE_COLOUR('',#209);
#206=FILL_AREA_STYLE_COLOUR('',#209);
#207=FILL_AREA_STYLE_COLOUR('',#209);
#208=FILL_AREA_STYLE_COLOUR('',#209);
#209=COLOUR_RGB('',0.501960784313725,0.635278858625162,0.705882352941177);
#210=COMPLEX_TRIANGULATED_FACE($,#224,4,((0.,-1.,0.),(0.,-1.,0.),(0.,-1.,
0.),(0.,-1.,0.)),$,(4,2,1,3),((1,2,3),(3,4,1)),());
#211=COMPLEX_TRIANGULATED_FACE($,#225,48,((0.,-0.388977831674429,-0.92124711476664),
(0.,-0.137931034448323,-0.9904418356148),(0.,-0.137931034448323,-0.9904418356148),
(0.,-0.613647107113382,-0.78958041258087),(0.,-0.388977831674429,-0.92124711476664),
(0.,-0.796703497139743,-0.604370364631907),(0.,-0.613647107113382,-0.78958041258087),
(0.,-0.925733507916568,-0.378176509477367),(0.,-0.796703497139743,-0.604370364631907),
(0.,-0.991987304251937,-0.126337596157976),(0.,-0.925733507916568,-0.378176509477367),
(0.,-0.990972056956085,0.134068573246031),(0.,-0.991987304251937,-0.126337596157976),
(0.,-0.922756612388586,0.38538323042543),(0.,-0.990972056956085,0.134068573246031),
(0.,-0.791966823821218,0.61056412436904),(0.,-0.922756612388586,0.38538323042543),
(0.,-0.607471861208014,0.794341197370797),(0.,-0.791966823821218,0.61056412436904),
(0.,-0.381782771451061,0.924252084348825),(0.,-0.607471861208014,0.794341197370797),
(0.,-0.13020407423612,0.991487215778557),(0.,-0.381782771451061,0.924252084348825),
(0.,0.13020407423612,0.991487215778557),(0.,-0.13020407423612,0.991487215778557),
(0.,0.381782771451061,0.924252084348825),(0.,0.13020407423612,0.991487215778557),
(0.,0.607471861208015,0.794341197370796),(0.,0.381782771451061,0.924252084348825),
(0.,0.791966823821218,0.610564124369039),(0.,0.607471861208015,0.794341197370796),
(0.,0.922756612388587,0.385383230425429),(0.,0.791966823821218,0.610564124369039),
(0.,0.990972056956085,0.13406857324603),(0.,0.922756612388587,0.385383230425429),
(0.,0.991987304251936,-0.126337596157978),(0.,0.990972056956085,0.13406857324603),
(0.,0.925733507916567,-0.378176509477369),(0.,0.991987304251936,-0.126337596157978),
(0.,0.796703497139742,-0.604370364631908),(0.,0.925733507916567,-0.378176509477369),
(0.,0.613647107113381,-0.789580412580871),(0.,0.796703497139742,-0.604370364631908),
(0.,0.388977831674428,-0.921247114766641),(0.,0.613647107113381,-0.789580412580871),
(0.,0.137931034448323,-0.9904418356148),(0.,0.388977831674428,-0.921247114766641),
(0.,0.137931034448323,-0.9904418356148)),$,(40,38,14,42,16,44,18,46,20,
48,22,47,24,45,23,43,21,41,19,39,17,37,15,36,13,34,12,32,10,30,8,28,6,26,
4,25,2,27,1,29,3,31,5,33,7,35,9,11),((1,2,3),(4,1,5),(6,4,7),(8,6,9),(10,
8,11),(12,10,13),(14,12,15),(16,14,17),(18,16,19),(20,18,21),(22,20,23),
(24,22,25),(26,24,27),(28,26,29),(30,28,31),(32,30,33),(34,32,35),(36,34,
37),(38,36,39),(40,38,41),(42,40,43),(44,42,45),(46,44,47),(47,48,46),(45,
47,44),(43,45,42),(41,43,40),(39,41,38),(37,39,36),(35,37,34),(33,35,32),
(31,33,30),(29,31,28),(27,29,26),(25,27,24),(23,25,22),(21,23,20),(19,21,
18),(17,19,16),(15,17,14),(13,15,12),(11,13,10),(9,11,8),(7,9,6),(5,7,4),
(3,5,1)),());
#212=COMPLEX_TRIANGULATED_FACE($,#226,4,((0.,-0.297297297338045,-0.954784958509241),
(0.,-0.108108108095034,-0.994139143663558),(0.,-0.108108108095034,-0.994139143663558),
(0.,-0.297297297338045,-0.954784958509241)),$,(4,3,1,2),((1,2,3),(3,4,1)),
());
#213=COMPLEX_TRIANGULATED_FACE($,#227,26,((0.,0.971764122951649,-0.235954422175157),
(0.,0.877582565535664,-0.479425531931542),(0.,0.877582565535664,-0.479425531931542),
(0.,0.999721561672491,0.0235965914300186),(0.,0.971764122951649,-0.235954422175157),
(0.,0.959549628461802,0.281539536333385),(0.,0.999721561672491,0.0235965914300186),
(0.,0.853985974165424,0.520296027208293),(0.,0.959549628461802,0.281539536333385),
(0.,0.690224587331506,0.723595203855755),(0.,0.853985974165424,0.520296027208293),
(0.,0.479425535782298,0.877582563431987),(0.,0.690224587331506,0.723595203855755),
(0.,0.235954426439176,0.971764121916301),(0.,0.479425535782298,0.877582563431987),
(0.,-0.0235965870433267,0.999721561776031),(0.,0.235954426439176,0.971764121916301),
(0.,-0.281539532122964,0.959549629697174),(0.,-0.0235965870433267,0.999721561776031),
(0.,-0.520296023461076,0.853985976448438),(0.,-0.281539532122964,0.959549629697174),
(0.,-0.723595200827109,0.69022459050658),(0.,-0.520296023461076,0.853985976448438),
(0.,-0.877582561328308,0.479425539633055),(0.,-0.723595200827109,0.69022459050658),
(0.,-0.877582561328308,0.479425539633055)),$,(2,4,17,1,15,3,14,5,16,6,18,
7,19,8,20,9,21,10,22,11,23,12,24,13,25,26),((1,2,3),(4,1,5),(6,4,7),(8,
6,9),(10,8,11),(12,10,13),(14,12,15),(16,14,17),(18,16,19),(20,18,21),(22,
20,23),(24,22,25),(25,26,24),(23,25,22),(21,23,20),(19,21,18),(17,19,16),
(15,17,14),(13,15,12),(11,13,10),(9,11,8),(7,9,6),(5,7,4),(3,5,1)),());
#214=COMPLEX_TRIANGULATED_FACE($,#228,159,((1.,0.,0.),(1.,0.,0.),(1.,0.,
0.),(1.,0.,0.),(1.,0.,0.),(1.,0.,0.),(1.,0.,0.),(1.,0.,0.),(1.,0.,0.),(1.,
0.,0.),(1.,0.,0.),(1.,0.,0.),(1.,0.,0.),(1.,0.,0.),(1.,0.,0.),(1.,0.,0.),
(1.,0.,0.),(1.,0.,0.),(1.,0.,0.),(1.,0.,0.),(1.,0.,0.),(1.,0.,0.),(1.,0.,
0.),(1.,0.,0.),(1.,0.,0.),(1.,0.,0.),(1.,0.,0.),(1.,0.,0.),(1.,0.,0.),(1.,
0.,0.),(1.,0.,0.),(1.,0.,0.),(1.,0.,0.),(1.,0.,0.),(1.,0.,0.),(1.,0.,0.),
(1.,0.,0.),(1.,0.,0.),(1.,0.,0.),(1.,0.,0.),(1.,0.,0.),(1.,0.,0.),(1.,0.,
0.),(1.,0.,0.),(1.,0.,0.),(1.,0.,0.),(1.,0.,0.),(1.,0.,0.),(1.,0.,0.),(1.,
0.,0.),(1.,0.,0.),(1.,0.,0.),(1.,0.,0.),(1.,0.,0.),(1.,0.,0.),(1.,0.,0.),
(1.,0.,0.),(1.,0.,0.),(1.,0.,0.),(1.,0.,0.),(1.,0.,0.),(1.,0.,0.),(1.,0.,
0.),(1.,0.,0.),(1.,0.,0.),(1.,0.,0.),(1.,0.,0.),(1.,0.,0.),(1.,0.,0.),(1.,
0.,0.),(1.,0.,0.),(1.,0.,0.),(1.,0.,0.),(1.,0.,0.),(1.,0.,0.),(1.,0.,0.),
(1.,0.,0.),(1.,0.,0.),(1.,0.,0.),(1.,0.,0.),(1.,0.,0.),(1.,0.,0.),(1.,0.,
0.),(1.,0.,0.),(1.,0.,0.),(1.,0.,0.),(1.,0.,0.),(1.,0.,0.),(1.,0.,0.),(1.,
0.,0.),(1.,0.,0.),(1.,0.,0.),(1.,0.,0.),(1.,0.,0.),(1.,0.,0.),(1.,0.,0.),
(1.,0.,0.),(1.,0.,0.),(1.,0.,0.),(1.,0.,0.),(1.,0.,0.),(1.,0.,0.),(1.,0.,
0.),(1.,0.,0.),(1.,0.,0.),(1.,0.,0.),(1.,0.,0.),(1.,0.,0.),(1.,0.,0.),(1.,
0.,0.),(1.,0.,0.),(1.,0.,0.),(1.,0.,0.),(1.,0.,0.),(1.,0.,0.),(1.,0.,0.),
(1.,0.,0.),(1.,0.,0.),(1.,0.,0.),(1.,0.,0.),(1.,0.,0.),(1.,0.,0.),(1.,0.,
0.),(1.,0.,0.),(1.,0.,0.),(1.,0.,0.),(1.,0.,0.),(1.,0.,0.),(1.,0.,0.),(1.,
0.,0.),(1.,0.,0.),(1.,0.,0.),(1.,0.,0.),(1.,0.,0.),(1.,0.,0.),(1.,0.,0.),
(1.,0.,0.),(1.,0.,0.),(1.,0.,0.),(1.,0.,0.),(1.,0.,0.),(1.,0.,0.),(1.,0.,
0.),(1.,0.,0.),(1.,0.,0.),(1.,0.,0.),(1.,0.,0.),(1.,0.,0.),(1.,0.,0.),(1.,
0.,0.),(1.,0.,0.),(1.,0.,0.),(1.,0.,0.),(1.,0.,0.),(1.,0.,0.),(1.,0.,0.),
(1.,0.,0.),(1.,0.,0.),(1.,0.,0.)),$,(122,121,125,140,136,139,135,132,126,
129,154,147,149,152,143,131,120,157,159,150,158,151,144,102,146,153,142,
155,145,156,133,137,130,141,134,148,117,118,98,124,123,128,127,138,79,80,
76,81,82,56,40,52,34,38,39,51,57,95,78,62,65,61,54,119,99,105,83,93,96,
10,20,17,21,26,28,30,32,75,64,60,58,33,37,77,66,59,44,46,108,106,107,6,
14,36,42,63,73,71,47,41,45,43,103,100,115,113,104,101,86,88,29,35,1,8,9,
2,11,16,24,70,74,50,48,112,116,89,84,85,31,23,25,7,15,19,5,12,4,67,69,72,
49,55,53,109,111,114,92,90,87,27,18,22,3,68,110,91,13,97,94),((1,2,3),(4,
5,6),(7,8,5),(9,3,10),(3,9,1),(11,12,13),(14,15,12),(5,4,7),(16,10,8),(1,
17,2),(18,19,20),(21,22,20),(12,11,14),(23,6,15),(8,7,16),(17,24,2),(25,
26,27),(26,28,29),(20,19,21),(30,13,22),(15,14,23),(10,16,9),(31,32,33),
(32,34,35),(29,27,26),(28,18,36),(22,21,30),(6,23,4),(37,38,39),(40,41,
38),(42,31,43),(35,33,32),(34,25,44),(36,29,28),(13,30,11),(45,46,47),(48,
49,46),(38,37,40),(41,40,42),(44,35,34),(20,36,18),(50,51,52),(53,54,55),
(54,56,57),(46,45,48),(58,39,49),(43,41,42),(27,44,25),(59,60,61),(59,50,
62),(52,63,50),(64,65,66),(67,68,69),(70,71,72),(73,74,75),(74,76,77),(57,
55,54),(78,47,57),(49,48,58),(33,43,31),(79,80,81),(81,82,83),(79,84,85),
(62,60,59),(63,86,50),(51,87,88),(17,89,90),(66,91,64),(69,65,67),(92,72,
93),(72,92,70),(77,75,74),(76,53,94),(57,56,78),(39,58,37),(83,95,81),(85,
96,79),(84,97,98),(86,62,50),(88,99,51),(100,101,102),(24,103,104),(90,
24,17),(17,105,106),(65,107,66),(69,108,65),(67,109,110),(111,100,112),
(113,114,115),(116,117,114),(70,118,71),(118,73,119),(94,77,76),(47,78,
45),(96,80,79),(98,120,84),(84,59,121),(51,122,52),(51,102,87),(100,123,
101),(90,103,24),(106,124,17),(17,64,125),(108,107,65),(110,126,67),(67,
127,128),(112,129,111),(130,131,111),(132,133,134),(135,136,133),(114,113,
116),(137,93,117),(119,71,118),(55,94,53),(84,138,85),(121,97,84),(59,139,
140),(99,122,51),(100,141,123),(100,142,143),(17,144,89),(125,105,17),(64,
145,146),(67,147,68),(128,109,67),(127,148,149),(111,150,130),(151,152,
131),(133,132,135),(153,115,136),(117,116,137),(75,119,73),(120,138,84),
(59,154,139),(102,51,100),(100,81,142),(124,144,17),(64,155,145),(126,147,
67),(127,156,148),(131,130,151),(157,134,152),(136,135,153),(93,137,92),
(140,121,59),(143,141,100),(146,125,64),(149,128,127),(127,158,159),(152,
151,157),(115,153,113),(100,111,82),(61,154,59),(91,155,64),(127,104,158),
(134,157,132),(81,95,79),(159,156,127),(82,81,100),(129,150,111),(104,127,
24)),());
#215=COMPLEX_TRIANGULATED_FACE($,#229,4,((0.,-1.,0.),(0.,-1.,0.),(0.,-1.,
0.),(0.,-1.,0.)),$,(2,1,3,4),((1,2,3),(3,4,1)),());
#216=COMPLEX_TRIANGULATED_FACE($,#230,26,((0.,-0.971764121226068,0.235954429281858),
(0.,-0.877582561328308,0.479425539633056),(0.,-0.877582561328308,0.479425539633056),
(0.,-0.999721561810545,-0.0235965855810957),(0.,-0.971764121226068,0.235954429281858),
(0.,-0.959549629697174,-0.281539532122963),(0.,-0.999721561810545,-0.0235965855810957),
(0.,-0.853985975687434,-0.520296024710146),(0.,-0.959549629697174,-0.281539532122963),
(0.,-0.690224588389864,-0.723595202846207),(0.,-0.853985975687434,-0.520296024710146),
(0.,-0.4794255357823,-0.877582563431985),(0.,-0.690224588389864,-0.723595202846207),
(0.,-0.235954425017839,-0.971764122261416),(0.,-0.4794255357823,-0.877582563431985),
(0.,0.0235965899677862,-0.999721561707005),(0.,-0.235954425017839,-0.971764122261416),
(0.,0.281539536333382,-0.959549628461803),(0.,0.0235965899677862,-0.999721561707005),
(0.,0.520296028457363,-0.85398597340442),(0.,0.281539536333382,-0.959549628461803),
(0.,0.723595205874851,-0.690224585214792),(0.,0.520296028457363,-0.85398597340442),
(0.,0.877582565535663,-0.479425531931544),(0.,0.723595205874851,-0.690224585214792),
(0.,0.877582565535663,-0.479425531931544)),$,(12,10,23,13,25,11,26,9,24,
8,22,7,21,6,20,5,19,4,18,3,17,2,16,1,15,14),((1,2,3),(4,1,5),(6,4,7),(8,
6,9),(10,8,11),(12,10,13),(14,12,15),(16,14,17),(18,16,19),(20,18,21),(22,
20,23),(24,22,25),(25,26,24),(23,25,22),(21,23,20),(19,21,18),(17,19,16),
(15,17,14),(13,15,12),(11,13,10),(9,11,8),(7,9,6),(5,7,4),(3,5,1)),());
#217=COMPLEX_TRIANGULATED_FACE($,#231,159,((1.,0.,0.),(1.,0.,0.),(1.,0.,
0.),(1.,0.,0.),(1.,0.,0.),(1.,0.,0.),(1.,0.,0.),(1.,0.,0.),(1.,0.,0.),(1.,
0.,0.),(1.,0.,0.),(1.,0.,0.),(1.,0.,0.),(1.,0.,0.),(1.,0.,0.),(1.,0.,0.),
(1.,0.,0.),(1.,0.,0.),(1.,0.,0.),(1.,0.,0.),(1.,0.,0.),(1.,0.,0.),(1.,0.,
0.),(1.,0.,0.),(1.,0.,0.),(1.,0.,0.),(1.,0.,0.),(1.,0.,0.),(1.,0.,0.),(1.,
0.,0.),(1.,0.,0.),(1.,0.,0.),(1.,0.,0.),(1.,0.,0.),(1.,0.,0.),(1.,0.,0.),
(1.,0.,0.),(1.,0.,0.),(1.,0.,0.),(1.,0.,0.),(1.,0.,0.),(1.,0.,0.),(1.,0.,
0.),(1.,0.,0.),(1.,0.,0.),(1.,0.,0.),(1.,0.,0.),(1.,0.,0.),(1.,0.,0.),(1.,
0.,0.),(1.,0.,0.),(1.,0.,0.),(1.,0.,0.),(1.,0.,0.),(1.,0.,0.),(1.,0.,0.),
(1.,0.,0.),(1.,0.,0.),(1.,0.,0.),(1.,0.,0.),(1.,0.,0.),(1.,0.,0.),(1.,0.,
0.),(1.,0.,0.),(1.,0.,0.),(1.,0.,0.),(1.,0.,0.),(1.,0.,0.),(1.,0.,0.),(1.,
0.,0.),(1.,0.,0.),(1.,0.,0.),(1.,0.,0.),(1.,0.,0.),(1.,0.,0.),(1.,0.,0.),
(1.,0.,0.),(1.,0.,0.),(1.,0.,0.),(1.,0.,0.),(1.,0.,0.),(1.,0.,0.),(1.,0.,
0.),(1.,0.,0.),(1.,0.,0.),(1.,0.,0.),(1.,0.,0.),(1.,0.,0.),(1.,0.,0.),(1.,
0.,0.),(1.,0.,0.),(1.,0.,0.),(1.,0.,0.),(1.,0.,0.),(1.,0.,0.),(1.,0.,0.),
(1.,0.,0.),(1.,0.,0.),(1.,0.,0.),(1.,0.,0.),(1.,0.,0.),(1.,0.,0.),(1.,0.,
0.),(1.,0.,0.),(1.,0.,0.),(1.,0.,0.),(1.,0.,0.),(1.,0.,0.),(1.,0.,0.),(1.,
0.,0.),(1.,0.,0.),(1.,0.,0.),(1.,0.,0.),(1.,0.,0.),(1.,0.,0.),(1.,0.,0.),
(1.,0.,0.),(1.,0.,0.),(1.,0.,0.),(1.,0.,0.),(1.,0.,0.),(1.,0.,0.),(1.,0.,
0.),(1.,0.,0.),(1.,0.,0.),(1.,0.,0.),(1.,0.,0.),(1.,0.,0.),(1.,0.,0.),(1.,
0.,0.),(1.,0.,0.),(1.,0.,0.),(1.,0.,0.),(1.,0.,0.),(1.,0.,0.),(1.,0.,0.),
(1.,0.,0.),(1.,0.,0.),(1.,0.,0.),(1.,0.,0.),(1.,0.,0.),(1.,0.,0.),(1.,0.,
0.),(1.,0.,0.),(1.,0.,0.),(1.,0.,0.),(1.,0.,0.),(1.,0.,0.),(1.,0.,0.),(1.,
0.,0.),(1.,0.,0.),(1.,0.,0.),(1.,0.,0.),(1.,0.,0.),(1.,0.,0.),(1.,0.,0.),
(1.,0.,0.),(1.,0.,0.),(1.,0.,0.)),$,(122,121,125,140,136,139,135,132,126,
129,154,147,149,152,143,131,120,157,159,150,158,151,144,102,146,153,142,
155,145,156,133,137,130,141,134,148,117,118,98,124,123,128,127,138,79,80,
76,81,82,56,40,52,34,38,39,51,57,95,54,84,93,96,10,20,17,21,26,28,30,32,
75,64,60,58,33,37,77,66,78,62,65,61,59,44,46,108,106,119,99,105,6,14,36,
42,63,73,71,50,47,41,45,43,103,100,115,113,107,101,86,88,29,35,1,8,9,2,
11,16,24,70,74,48,112,116,104,92,89,83,85,31,23,25,7,15,19,5,12,4,67,69,
72,49,55,53,109,111,114,90,87,27,18,22,3,68,110,91,13,97,94),((1,2,3),(4,
5,6),(7,8,5),(9,3,10),(3,9,1),(11,12,13),(14,15,12),(5,4,7),(16,10,8),(1,
17,2),(18,19,20),(21,22,20),(12,11,14),(23,6,15),(8,7,16),(17,24,2),(25,
26,27),(26,28,29),(20,19,21),(30,13,22),(15,14,23),(10,16,9),(31,32,33),
(32,34,35),(29,27,26),(28,18,36),(22,21,30),(6,23,4),(37,38,39),(40,41,
38),(42,31,43),(35,33,32),(34,25,44),(36,29,28),(13,30,11),(45,46,47),(48,
49,46),(38,37,40),(41,40,42),(44,35,34),(20,36,18),(50,51,52),(53,54,55),
(54,56,57),(46,45,48),(58,39,49),(43,41,42),(27,44,25),(52,59,50),(60,61,
62),(63,64,65),(66,67,68),(67,69,70),(57,55,54),(71,47,57),(49,48,58),(33,
43,31),(72,73,74),(74,75,76),(72,77,78),(79,80,81),(79,50,82),(59,83,50),
(51,84,85),(17,86,87),(88,89,90),(62,89,60),(91,65,92),(65,91,63),(70,68,
67),(69,53,93),(57,56,71),(39,58,37),(76,94,74),(78,95,72),(77,96,97),(82,
80,79),(51,98,52),(85,99,51),(100,101,102),(24,103,104),(87,24,17),(17,
105,106),(90,107,88),(62,108,89),(60,109,110),(111,100,112),(113,114,115),
(116,117,114),(63,118,64),(118,66,119),(93,70,69),(47,71,45),(95,73,72),
(97,120,77),(77,79,121),(83,82,50),(51,102,84),(100,122,101),(87,103,24),
(106,123,17),(17,88,124),(89,125,90),(60,126,61),(110,127,60),(60,128,129),
(112,130,111),(131,132,111),(133,134,135),(136,137,134),(114,113,116),(138,
92,117),(119,64,118),(55,93,53),(77,139,78),(121,96,77),(79,140,141),(99,
98,51),(100,142,122),(100,143,144),(17,145,86),(124,105,17),(88,146,147),
(108,125,89),(129,109,60),(128,148,149),(111,150,131),(151,152,132),(134,
133,136),(153,115,137),(117,116,138),(68,119,66),(120,139,77),(79,154,140),
(102,51,100),(100,74,143),(123,145,17),(88,155,146),(127,126,60),(128,156,
148),(132,131,151),(157,135,152),(137,136,153),(92,138,91),(141,121,79),
(144,142,100),(147,124,88),(149,129,128),(128,158,159),(152,151,157),(115,
153,113),(100,111,75),(81,154,79),(107,155,88),(128,104,158),(135,157,133),
(74,94,72),(159,156,128),(75,74,100),(130,150,111),(104,128,24)),());
#218=COMPLEX_TRIANGULATED_FACE($,#232,26,((0.,-0.971764121226068,0.235954429281858),
(0.,-0.877582561328308,0.479425539633056),(0.,-0.877582561328308,0.479425539633056),
(0.,-0.999721561810545,-0.0235965855810957),(0.,-0.971764121226068,0.235954429281858),
(0.,-0.959549629697174,-0.281539532122963),(0.,-0.999721561810545,-0.0235965855810957),
(0.,-0.853985975687434,-0.520296024710146),(0.,-0.959549629697174,-0.281539532122963),
(0.,-0.690224588389864,-0.723595202846207),(0.,-0.853985975687434,-0.520296024710146),
(0.,-0.4794255357823,-0.877582563431985),(0.,-0.690224588389864,-0.723595202846207),
(0.,-0.235954425017839,-0.971764122261416),(0.,-0.4794255357823,-0.877582563431985),
(0.,0.0235965899677862,-0.999721561707005),(0.,-0.235954425017839,-0.971764122261416),
(0.,0.281539536333382,-0.959549628461803),(0.,0.0235965899677862,-0.999721561707005),
(0.,0.520296028457363,-0.85398597340442),(0.,0.281539536333382,-0.959549628461803),
(0.,0.723595205874851,-0.690224585214792),(0.,0.520296028457363,-0.85398597340442),
(0.,0.877582565535663,-0.479425531931544),(0.,0.723595205874851,-0.690224585214792),
(0.,0.877582565535663,-0.479425531931544)),$,(12,10,23,13,25,11,26,9,24,
8,22,7,21,6,20,5,19,4,18,3,17,2,16,1,15,14),((1,2,3),(4,1,5),(6,4,7),(8,
6,9),(10,8,11),(12,10,13),(14,12,15),(16,14,17),(18,16,19),(20,18,21),(22,
20,23),(24,22,25),(25,26,24),(23,25,22),(21,23,20),(19,21,18),(17,19,16),
(15,17,14),(13,15,12),(11,13,10),(9,11,8),(7,9,6),(5,7,4),(3,5,1)),());
#219=COMPLEX_TRIANGULATED_FACE($,#233,48,((0.,-0.559328597628029,-0.828946029531152),
(0.,-0.343750000026566,-0.93906120007257),(0.,-0.343750000026566,-0.93906120007257),
(0.,-0.742130828845836,-0.670255050616251),(0.,-0.559328597628029,-0.828946029531152),
(0.,-0.881444577525811,-0.472287472574007),(0.,-0.742130828845836,-0.670255050616251),
(0.,-0.969106130086386,-0.24664409303486),(0.,-0.881444577525811,-0.472287472574007),
(0.,-0.999978564909982,-0.00654749727548419),(0.,-0.969106130086386,-0.24664409303486),
(0.,-0.972252773291583,0.233932778436083),(0.,-0.999978564909982,-0.00654749727548419),
(0.,-0.887553472272683,0.460704714385151),(0.,-0.972252773291583,0.233932778436083),
(0.,-0.750843997063403,0.660479592473418),(0.,-0.887553472272683,0.460704714385151),
(0.,-0.57013545216757,0.821550708222981),(0.,-0.750843997063403,0.660479592473418),
(0.,-0.356017264804317,0.93447937760084),(0.,-0.57013545216757,0.821550708222981),
(0.,-0.12103664995279,0.992648039018969),(0.,-0.356017264804317,0.93447937760084),
(0.,0.121036649952793,0.992648039018969),(0.,-0.12103664995279,0.992648039018969),
(0.,0.356017264804319,0.934479377600839),(0.,0.121036649952793,0.992648039018969),
(0.,0.570135452167571,0.821550708222979),(0.,0.356017264804319,0.934479377600839),
(0.,0.750843997063404,0.660479592473417),(0.,0.570135452167571,0.821550708222979),
(0.,0.887553472272684,0.460704714385149),(0.,0.750843997063404,0.660479592473417),
(0.,0.972252773291584,0.233932778436081),(0.,0.887553472272684,0.460704714385149),
(0.,0.999978564909982,-0.00654749727548645),(0.,0.972252773291584,0.233932778436081),
(0.,0.969106130086385,-0.246644093034863),(0.,0.999978564909982,-0.00654749727548645),
(0.,0.881444577525809,-0.472287472574011),(0.,0.969106130086385,-0.246644093034863),
(0.,0.742130828845834,-0.670255050616252),(0.,0.881444577525809,-0.472287472574011),
(0.,0.559328597628027,-0.828946029531154),(0.,0.742130828845834,-0.670255050616252),
(0.,0.343750000026565,-0.939061200072571),(0.,0.559328597628027,-0.828946029531154),
(0.,0.343750000026565,-0.939061200072571)),$,(40,38,14,42,16,44,18,46,20,
48,22,47,24,45,23,43,21,41,19,39,17,37,15,36,13,34,12,32,10,30,8,28,6,26,
4,25,2,27,1,29,3,31,5,33,7,35,9,11),((1,2,3),(4,1,5),(6,4,7),(8,6,9),(10,
8,11),(12,10,13),(14,12,15),(16,14,17),(18,16,19),(20,18,21),(22,20,23),
(24,22,25),(26,24,27),(28,26,29),(30,28,31),(32,30,33),(34,32,35),(36,34,
37),(38,36,39),(40,38,41),(42,40,43),(44,42,45),(46,44,47),(47,48,46),(45,
47,44),(43,45,42),(41,43,40),(39,41,38),(37,39,36),(35,37,34),(33,35,32),
(31,33,30),(29,31,28),(27,29,26),(25,27,24),(23,25,22),(21,23,20),(19,21,
18),(17,19,16),(15,17,14),(13,15,12),(11,13,10),(9,11,8),(7,9,6),(5,7,4),
(3,5,1)),());
#220=COMPLEX_TRIANGULATED_FACE($,#234,4,((0.,0.108108108095033,-0.994139143663558),
(0.,0.297297297338044,-0.954784958509242),(0.,0.297297297338044,-0.954784958509242),
(0.,0.108108108095033,-0.994139143663558)),$,(4,3,1,2),((1,2,3),(3,4,1)),
());
#221=COMPLEX_TRIANGULATED_FACE($,#235,4,((0.,-1.,0.),(0.,-1.,0.),(0.,-1.,
0.),(0.,-1.,0.)),$,(3,4,2,1),((1,2,3),(3,4,1)),());
#222=COMPLEX_TRIANGULATED_FACE($,#236,4,((0.,1.,0.),(0.,1.,0.),(0.,1.,0.),
(0.,1.,0.)),$,(3,1,2,4),((1,2,3),(3,4,1)),());
#223=COMPLEX_TRIANGULATED_FACE($,#237,26,((0.,0.971764122951649,-0.235954422175157),
(0.,0.877582565535664,-0.479425531931542),(0.,0.877582565535664,-0.479425531931542),
(0.,0.999721561672491,0.0235965914300186),(0.,0.971764122951649,-0.235954422175157),
(0.,0.959549628461802,0.281539536333385),(0.,0.999721561672491,0.0235965914300186),
(0.,0.853985974165424,0.520296027208293),(0.,0.959549628461802,0.281539536333385),
(0.,0.690224587331506,0.723595203855755),(0.,0.853985974165424,0.520296027208293),
(0.,0.479425535782298,0.877582563431987),(0.,0.690224587331506,0.723595203855755),
(0.,0.235954426439176,0.971764121916301),(0.,0.479425535782298,0.877582563431987),
(0.,-0.0235965870433267,0.999721561776031),(0.,0.235954426439176,0.971764121916301),
(0.,-0.281539532122963,0.959549629697174),(0.,-0.0235965870433267,0.999721561776031),
(0.,-0.520296023461076,0.853985976448438),(0.,-0.281539532122963,0.959549629697174),
(0.,-0.723595200827109,0.69022459050658),(0.,-0.520296023461076,0.853985976448438),
(0.,-0.877582561328308,0.479425539633055),(0.,-0.723595200827109,0.69022459050658),
(0.,-0.877582561328308,0.479425539633055)),$,(2,4,17,1,15,3,14,5,16,6,18,
7,19,8,20,9,21,10,22,11,23,12,24,13,25,26),((1,2,3),(4,1,5),(6,4,7),(8,
6,9),(10,8,11),(12,10,13),(14,12,15),(16,14,17),(18,16,19),(20,18,21),(22,
20,23),(24,22,25),(25,26,24),(23,25,22),(21,23,20),(19,21,18),(17,19,16),
(15,17,14),(13,15,12),(11,13,10),(9,11,8),(7,9,6),(5,7,4),(3,5,1)),());
#224=COORDINATES_LIST('',4,((0.,5.5,15.0249792),(0.,5.5,17.66352173),(1.,
5.5,15.0249792),(1.,5.5,17.66352173)));
#225=COORDINATES_LIST('',48,((0.,-14.3838159152441,2.33189514474802),(0.,
-14.3690948294505,-1.44399431255276),(0.,-13.4231358681414,5.98355938879084),
(0.,-13.3799708829749,-5.08805684256381),(0.,-11.5522007114103,9.26337028935048),
(0.,-11.4835189482746,-8.35317980556131),(0.,-8.89788305536542,11.9489159852809),
(0.,-8.80834198971526,-11.0179473647521),(0.,-5.6401785606873,13.8580831674512),
(0.,-5.53585018742244,-12.9016552264037),(0.,-1.99999999999999,14.86140662),
(0.,-1.88795907689508,-13.8765646323783),(0.,1.88795907689508,-13.8765646323783),
(0.,2.,14.86140662),(0.,5.53585018742243,-12.9016552264037),(0.,5.64017856068732,
13.8580831674512),(0.,8.80834198971525,-11.0179473647521),(0.,8.89788305536544,
11.9489159852809),(0.,11.4835189482746,-8.35317980556131),(0.,11.5522007114103,
9.26337028935046),(0.,13.3799708829749,-5.08805684256382),(0.,13.4231358681414,
5.98355938879082),(0.,14.3690948294505,-1.44399431255278),(0.,14.3838159152441,
2.331895144748),(1.,-14.3838159152441,2.33189514474802),(1.,-14.3690948294505,
-1.44399431255276),(1.,-13.4231358681414,5.98355938879084),(1.,-13.3799708829749,
-5.08805684256381),(1.,-11.5522007114103,9.26337028935048),(1.,-11.4835189482746,
-8.35317980556131),(1.,-8.89788305536542,11.9489159852809),(1.,-8.80834198971526,
-11.0179473647521),(1.,-5.6401785606873,13.8580831674512),(1.,-5.53585018742244,
-12.9016552264037),(1.,-1.99999999999999,14.86140662),(1.,-1.88795907689508,
-13.8765646323783),(1.,1.88795907689508,-13.8765646323783),(1.,2.,14.86140662),
(1.,5.53585018742243,-12.9016552264037),(1.,5.64017856068732,13.8580831674512),
(1.,8.80834198971525,-11.0179473647521),(1.,8.89788305536544,11.9489159852809),
(1.,11.4835189482746,-8.35317980556131),(1.,11.5522007114103,9.26337028935046),
(1.,13.3799708829749,-5.08805684256382),(1.,13.4231358681414,5.98355938879082),
(1.,14.3690948294505,-1.44399431255278),(1.,14.3838159152441,2.331895144748)));
#226=COORDINATES_LIST('',4,((0.,1.99999999948401,18.3915741552551),(0.,
5.5,17.66352173),(1.,1.99999999948401,18.3915741552551),(1.,5.5,17.66352173)));
#227=COORDINATES_LIST('',26,((0.,-4.69972156243767,16.5378100285519),(0.,
-4.67176412369543,16.7973610423558),(0.,-4.65954962919623,16.2798670834511),
(0.,-4.57758256620736,17.0408321522985),(0.,-4.55398597481905,16.0411105923935),
(0.,-4.3902245878598,15.8378114155904),(0.,-4.17942553614924,15.6838240558963),
(0.,-3.93595442661977,15.5896424973399),(0.,-3.67640341293861,15.5616850574588),
(0.,-3.41846046766155,15.6018569895684),(0.,-3.1797039761407,15.7074206428979),
(0.,-2.97640479861906,15.8711820289651),(0.,-2.822417438,16.08198108),(1.,
-4.69972156243767,16.5378100285519),(1.,-4.67176412369543,16.7973610423558),
(1.,-4.65954962919623,16.2798670834511),(1.,-4.57758256620736,17.0408321522985),
(1.,-4.55398597481905,16.0411105923935),(1.,-4.3902245878598,15.8378114155904),
(1.,-4.17942553614924,15.6838240558963),(1.,-3.93595442661977,15.5896424973399),
(1.,-3.67640341293861,15.5616850574588),(1.,-3.41846046766155,15.6018569895684),
(1.,-3.1797039761407,15.7074206428979),(1.,-2.97640479861906,15.8711820289651),
(1.,-2.822417438,16.08198108)));
#228=COORDINATES_LIST('',159,((0.,-15.9980370927,0.347625531915731),(0.,
-15.9248544860403,-1.55786899722781),(0.,-15.8399822067527,2.25874040606259),
(0.,-15.6226991503016,-3.45580230219111),(0.,-15.4560210417292,4.14063044744333),
(0.,-15.0988867288441,-5.29933834887958),(0.,-14.8542850653221,5.95030171946508),
(0.,-14.4859449139426,-0.141685047674351),(0.,-14.4535885144049,1.68538500408298),
(0.,-14.3601716979991,-7.05747213946492),(0.,-14.2912696854941,-1.95962229999706),
(0.,-14.1917652339361,3.48041518012409),(0.,-14.0337879954725,7.6848051255922),
(0.,-13.8730435329617,-3.72486436958492),(0.,-13.7027062880294,5.24245260909315),
(0.,-13.409805070181,-8.72888215880307),(0.,-13.2296632305647,-5.43546565233481),
(0.,-13.0136450642567,9.31040840503159),(0.,-12.9993409347542,6.92876413803007),
(0.,-12.3788930322812,-7.0534219876634),(0.,-12.2717794843855,-10.2695314062459),
(0.,-12.0943898561178,8.5008589198398),(0.,-11.813539822581,10.7932021956975),
(0.,-11.3394364749118,-8.54032221116608),(0.,-10.9902198602306,9.95889936755674),
(0.,-10.9616445874516,-11.6558753907864),(0.,-10.4346782350044,12.1292423157546),
(0.,-10.1107381084742,-9.8935623766775),(0.,-9.71503080265312,11.2671043239485),
(0.,-9.48403058366555,-12.886999565955),(0.,-8.90964187878764,13.2914018383972),
(0.,-8.72385079344581,-11.0838956113594),(0.,-8.2944083061566,12.3949453952573),
(0.,-7.87780307827248,-13.9283769013968),(0.,-7.26379616133019,14.2578213656669),
(0.,-7.20945291208823,-12.0830614718606),(0.,-6.73033835888572,13.3436376758303),
(0.,-6.16314353220847,-14.7657619424262),(0.,-5.56829347332231,-12.8883059469629),
(0.,-5.5,17.66352173),(0.,-5.49999999980811,15.0249792010758),(0.,-5.06288866334867,
14.0897277839938),(0.,-4.70219743599086,16.5361949023298),(0.,-4.68413057020818,
16.7544029373903),(0.,-4.65954962998245,16.2798670888493),(0.,-4.60941265027055,
16.9780562797272),(0.,-4.57758256189435,17.0408321585969),(0.,-4.57405344424222,
16.0714538530773),(0.,-4.43364636177081,15.8775534964667),(0.,-4.43010698542035,
17.2481552013965),(0.,-4.34684431061309,-15.3990925762151),(0.,-4.26348095371374,
17.3908936157342),(0.,-4.25673576749535,15.7300833238652),(0.,-4.05286203627992,
17.497411934838),(0.,-4.03557012320668,15.6181233290286),(0.,-4.03144451353014,
18.0555986554803),(0.,-3.8406839606095,-13.4836468133237),(0.,-3.80708926520048,
15.5640034236817),(0.,-3.80599561017165,17.5573424315222),(0.,-3.59400438982695,
15.5654708084781),(0.,-3.59291073479981,17.5588098163185),(0.,-3.36442987679421,
17.5046899109718),(0.,-3.34713796371948,15.6254013051621),(0.,-3.32672329633837,
14.6145228657025),(0.,-3.14326423250551,17.3927299161354),(0.,-3.13651904628616,
15.7319196242657),(0.,-2.96989301457983,15.8746580386031),(0.,-2.96635363822969,
17.2452597435338),(0.,-2.82594655575803,17.0513593869232),(0.,-2.82241743810565,
16.0819810814031),(0.,-2.79058734972943,16.1447569602728),(0.,-2.74045037001755,
16.8429461511507),(0.,-2.71586942979182,16.3684103026098),(0.,-2.69780256400919,
16.5866183376704),(0.,-2.47805887898592,-15.8087777428379),(0.,-2.06451946398739,
-13.8543297221188),(0.,-1.99999999973006,14.8614066153173),(0.,-1.99999999956569,
18.3915741558355),(0.,-0.577384419998111,-15.9898165370636),(0.,-0.241875561322187,
-13.9980561725262),(0.,1.34559780244358,-15.9443399441331),(0.,1.58317677532015,
-13.914846190177),(0.,2.,18.39157416),(0.,2.00000000011951,14.861406615263),
(0.,2.69780256400919,16.5361949023296),(0.,2.71586942979183,16.7544029373902),
(0.,2.74045037001755,16.2798670888493),(0.,2.79058734972944,16.9780562797272),
(0.,2.82241743810565,17.0408321585969),(0.,2.82594655575765,16.0714538530775),
(0.,2.9663536382291,15.8775534964668),(0.,2.96989301457965,17.2481552013965),
(0.,3.13651904628626,17.3908936157342),(0.,3.1432642325047,15.7300833238652),
(0.,3.23798920082505,-15.6707241873686),(0.,3.3471379637201,17.4974119348381),
(0.,3.36442987679331,15.6181233290285),(0.,3.37104985996551,-13.6047649336276),
(0.,3.50308755023031,18.1655048178924),(0.,3.59291073479947,15.5640034236817),
(0.,3.59400438982833,17.5573424315222),(0.,3.79599482001027,14.4961594108342),
(0.,3.80599561017303,15.5654708084781),(0.,3.80708926520015,17.5588098163185),
(0.,4.03557012320577,17.5046899109718),(0.,4.05286203628054,15.6254013051621),
(0.,4.25673576749453,17.3927299161354),(0.,4.26348095371384,15.7319196242657),
(0.,4.43010698542017,15.8746580386031),(0.,4.43364636177022,17.2452597435339),
(0.,4.57405344424184,17.0513593869234),(0.,4.57758256189435,16.0819810814031),
(0.,4.60941265027057,16.1447569602728),(0.,4.65954962998245,16.8429461511507),
(0.,4.68413057020819,16.3684103026098),(0.,4.70219743599086,16.5866183376702),
(0.,5.08227290463963,-15.1715011833385),(0.,5.11858999772193,-13.066566512001),
(0.,5.49999999958109,17.6635217307441),(0.,5.5,15.0249792),(0.,5.51544562719314,
13.9119422549444),(0.,6.56915838445759,14.5901332371726),(0.,6.78418489606303,
-12.3167885344888),(0.,6.86624816979396,-14.4531161725613),(0.,7.15469367169702,
13.1119164219904),(0.,8.25861829258088,13.7060174653507),(0.,8.33202361595737,
-11.369501929421),(0.,8.54053863895511,-13.5319080024593),(0.,8.6872695740307,
12.1118595554626),(0.,9.7583821048746,-10.2249834788784),(0.,9.83755955549772,
12.6187069595655),(0.,10.0700156756741,10.9352643978348),(0.,10.0928978551602,
-12.4151018604838),(0.,11.0301665356876,-8.9144377312032),(0.,11.2796589149886,
11.3489951802713),(0.,11.2993576173387,9.58706375403455),(0.,11.5100087830896,
-11.1158723682992),(0.,12.119983788396,-7.46322696265801),(0.,12.3553282189635,
8.09279915401143),(0.,12.5503168369718,9.92706998503255),(0.,12.7526081617433,
-9.66544209728549),(0.,13.0242438442203,-5.87338332604707),(0.,13.206971343267,
6.48957064606763),(0.,13.6466425824194,8.35310759045817),(0.,13.7233919087101,
-4.18675674207423),(0.,13.8143104527471,-8.07247751445376),(0.,13.8530844030184,
4.78280895004972),(0.,14.2016510491955,-2.4358764104778),(0.,14.2839619297953,
3.0047838468128),(0.,14.456357346054,-0.624445227481704),(0.,14.4847199992911,
1.20071870442572),(0.,14.5498056427672,6.6587492056859),(0.,14.6837649756072,
-6.35881216899884),(0.,15.2392850942455,4.88045566635267),(0.,15.3364446116074,
-4.56498352027951),(0.,15.7123982871493,3.0203890536704),(0.,15.770839716063,
-2.69833259877099),(0.,15.9621535277276,1.11828264833529),(0.,15.9821156432944,
-0.789538409940231)));
#229=COORDINATES_LIST('',4,((0.,-5.5,15.0249792),(0.,-5.5,17.66352173),
(1.,-5.5,15.0249792),(1.,-5.5,17.66352173)));
#230=COORDINATES_LIST('',26,((0.,-4.577582562,17.04083215),(0.,-4.42359520295958,
17.251631202434),(0.,-4.22029602636116,17.4153925899638),(0.,-3.9815395351991,
17.5209562445959),(0.,-3.72359658987272,17.5611281776793),(0.,-3.46404557593279,
17.5331707383463),(0.,-3.22057446614924,17.4389891798963),(0.,-3.00977541439096,
17.2850018199309),(0.,-2.84601402775316,17.0817026426139),(0.,-2.82241744220736,
16.0819810822985),(0.,-2.74045037416873,16.8429461509887),(0.,-2.72823588268904,
16.3254521916688),(0.,-2.7002784422172,16.585003205486),(1.,-4.577582562,
17.04083215),(1.,-4.42359520295958,17.251631202434),(1.,-4.22029602636116,
17.4153925899638),(1.,-3.9815395351991,17.5209562445959),(1.,-3.72359658987272,
17.5611281776793),(1.,-3.46404557593279,17.5331707383463),(1.,-3.22057446614924,
17.4389891798963),(1.,-3.00977541439096,17.2850018199309),(1.,-2.84601402775316,
17.0817026426139),(1.,-2.82241744220736,16.0819810822985),(1.,-2.74045037416873,
16.8429461509887),(1.,-2.72823588268904,16.3254521916688),(1.,-2.7002784422172,
16.585003205486)));
#231=COORDINATES_LIST('',159,((1.,-15.9980235591661,0.347575176817137),
(1.,-15.9248911106864,-1.55793994949378),(1.,-15.8399182101505,2.25897354345374),
(1.,-15.6227072113065,-3.4555974780174),(1.,-15.4560889729801,4.14053996203878),
(1.,-15.0988507397236,-5.29941669364149),(1.,-14.8542686066055,5.95028653103846),
(1.,-14.4859053956685,-0.141988379334786),(1.,-14.4535662311166,1.68537298146922),
(1.,-14.3602003084849,-7.05751179809203),(1.,-14.2913309936468,-1.95952754285998),
(1.,-14.1917895720514,3.48051728743176),(1.,-14.0336315635346,7.68504388064668),
(1.,-13.8730156866246,-3.72487215297751),(1.,-13.7027780688341,5.24216050435101),
(1.,-13.4098636561512,-8.72871801554529),(1.,-13.229514002305,-5.43573882171249),
(1.,-13.0137566130377,9.31032096736774),(1.,-12.9993234418168,6.92874989321869),
(1.,-12.3789889881628,-7.0533489190454),(1.,-12.2717041945632,-10.2696194431012),
(1.,-12.0943802217264,8.50095544354507),(1.,-11.8134925347555,10.7932142649533),
(1.,-11.3394032687509,-8.54032290417527),(1.,-10.9903897704088,9.95865706968545),
(1.,-10.9616924999664,-11.6558872858719),(1.,-10.4344629054478,12.1294111029491),
(1.,-10.1104957692928,-9.89376667918015),(1.,-9.7150169423843,11.2670888383204),
(1.,-9.48412020896082,-12.8868804416133),(1.,-8.90980912128952,13.2913701960604),
(1.,-8.72397319103453,-11.0838576598698),(1.,-8.29437163753466,12.3950265488007),
(1.,-7.87768375015415,-13.9284507652599),(1.,-7.26403808610469,14.2577378786709),
(1.,-7.20941600656997,-12.0830518735506),(1.,-6.7306669353574,13.3434272676264),
(1.,-6.16323382065507,-14.7657656203631),(1.,-5.56798789779071,-12.8884106574215),
(1.,-5.5,17.66352173),(1.,-5.49999999934182,15.0249792012465),(1.,-5.0631517413398,
14.0895554426355),(1.,-4.70200202048381,16.5353948569995),(1.,-4.68409100407702,
16.7540745200871),(1.,-4.65954962998245,16.2798670888493),(1.,-4.60943515788918,
16.9779909800441),(1.,-4.57758256189435,17.0408321585969),(1.,-4.57512080461997,
16.0732072782311),(1.,-4.43456696927181,15.8786056813673),(1.,-4.42993442633713,
17.2484581749852),(1.,-4.34694925941326,-15.3990176168295),(1.,-4.26358079189549,
17.391024374429),(1.,-4.25697202007553,15.7303376832605),(1.,-4.05347156097705,
17.4972751988351),(1.,-4.03650871811973,15.6183579116094),(1.,-4.03144451326532,
18.0555986555394),(1.,-3.84081918175175,-13.4836540006756),(1.,-3.80777263113989,
15.5640770321881),(1.,-3.80708083247019,17.5571055247629),(1.,-3.59291916752979,
15.5657077152371),(1.,-3.59222736886007,17.5587362078119),(1.,-3.36349128188028,
17.5044553283906),(1.,-3.34652843902295,15.6255380411649),(1.,-3.32677112250183,
14.6144886126419),(1.,-3.14302797992455,17.3924755567395),(1.,-3.13641920810452,
15.731788865571),(1.,-2.97006557366287,15.8743550650148),(1.,-2.96543303072819,
17.2442075586327),(1.,-2.82487919537999,17.0496059617688),(1.,-2.82241743810565,
16.0819810814031),(1.,-2.79056484211081,16.1448222599559),(1.,-2.74045037001755,
16.8429461511507),(1.,-2.71590899592297,16.368738719913),(1.,-2.69799797951619,
16.5874183830006),(1.,-2.47790372226702,-15.8088144144753),(1.,-2.06448222595256,
-13.8543069938285),(1.,-2.00000000011951,14.861406615263),(1.,-1.99999999929597,
18.3915741558649),(1.,-0.577528045359416,-15.9898444452689),(1.,-0.241546356883985,
-13.9980429475126),(1.,1.34548920265155,-15.944305938859),(1.,1.58304621795209,
-13.9149029166576),(1.,1.99999999973006,14.8614066153173),(1.,2.,18.39157416),
(1.,2.69799797951619,16.5353948569994),(1.,2.71590899592297,16.754074520087),
(1.,2.74045037001755,16.2798670888493),(1.,2.79056484211081,16.9779909800441),
(1.,2.82241743810565,17.0408321585969),(1.,2.82487919537998,16.0732072782312),
(1.,2.96543303072819,15.8786056813673),(1.,2.97006557366287,17.2484581749852),
(1.,3.13641920810451,17.391024374429),(1.,3.14302797992456,15.7303376832605),
(1.,3.23816111162541,-15.6707076370024),(1.,3.34652843902295,17.4972751988351),
(1.,3.36349128188026,15.6183579116094),(1.,3.37108243755629,-13.6047274334056),
(1.,3.50308755049677,18.1655048178411),(1.,3.59222736886007,15.5640770321881),
(1.,3.59291916752979,17.5571055247629),(1.,3.79624878231328,14.4961288629015),
(1.,3.80708083247021,15.5657077152371),(1.,3.80777263113989,17.5587362078119),
(1.,4.03650871811972,17.5044553283906),(1.,4.05347156097705,15.6255380411649),
(1.,4.25697202007553,17.3924755567395),(1.,4.2635807918955,15.731788865571),
(1.,4.42993442633713,15.8743550650148),(1.,4.4345669692718,17.2442075586327),
(1.,4.57512080461996,17.0496059617689),(1.,4.57758256189435,16.0819810814031),
(1.,4.60943515788919,16.1448222599559),(1.,4.65954962998245,16.8429461511507),
(1.,4.68409100407703,16.368738719913),(1.,4.70200202048381,16.5874183830005),
(1.,5.08208306910493,-15.1715922440155),(1.,5.11889843186091,-13.066432306569),
(1.,5.49999999984013,17.6635217306634),(1.,5.5,15.0249792),(1.,5.51563006575605,
13.9119447020895),(1.,6.56918026096926,14.5901067401321),(1.,6.78407791582157,
-12.3168921036248),(1.,6.86614458458388,-14.4531198514928),(1.,7.15441484467149,
13.1120713527348),(1.,8.25879354696489,13.7058396839975),(1.,8.33204537557637,
-11.3694500247979),(1.,8.54070213180606,-13.5318338270456),(1.,8.68717510533704,
12.1118864860909),(1.,9.75862632308046,-10.2247415590282),(1.,9.83780618556778,
12.61846566959),(1.,10.0701641013275,10.9351736393379),(1.,10.0926899570451,
-12.4152927075596),(1.,11.0301004907587,-8.91457797038511),(1.,11.2796291009675,
11.3490854385731),(1.,11.2991158230075,9.5873558834872),(1.,11.5099179016652,
-11.1159116273486),(1.,12.1199882441751,-7.46316365580031),(1.,12.355256270167,
8.0928511626188),(1.,12.5502832062972,9.92708432304554),(1.,12.7527386449341,
-9.66531947878077),(1.,13.0243871958748,-5.87306218494321),(1.,13.207074922599,
6.48943563393915),(1.,13.6467545717309,8.35287258781402),(1.,13.7233795803378,
-4.18691689949078),(1.,13.8141328110362,-8.07279264420496),(1.,13.852967899878,
4.78315945603388),(1.,14.2016325200685,-2.43580761278972),(1.,14.283916824572,
3.0048495233854),(1.,14.4563751718044,-0.62408546738025),(1.,14.4847670781972,
1.2005598320058),(1.,14.5497933605412,6.65887526595606),(1.,14.6836959648187,
-6.3588857637172),(1.,15.2392665806148,4.88043610335921),(1.,15.3365253276764,
-4.56483366081341),(1.,15.7124382132393,3.02008425844304),(1.,15.7707713238641,
-2.69868905818037),(1.,15.962181578786,1.11843236136873),(1.,15.9820832561494,
-0.78960240375746)));
#232=COORDINATES_LIST('',26,((0.,2.822417438,17.04083215),(0.,2.97640479704042,
17.251631202434),(0.,3.17970397363884,17.4153925899638),(0.,3.4184604648009,
17.5209562445959),(0.,3.67640341012728,17.5611281776793),(0.,3.93595442406721,
17.5331707383463),(0.,4.17942553385076,17.4389891798963),(0.,4.39022458560904,
17.2850018199309),(0.,4.55398597224684,17.0817026426139),(0.,4.57758255779264,
16.0819810822985),(0.,4.65954962583127,16.8429461509887),(0.,4.67176411731096,
16.3254521916688),(0.,4.6997215577828,16.585003205486),(1.,2.822417438,
17.04083215),(1.,2.97640479704042,17.251631202434),(1.,3.17970397363884,
17.4153925899638),(1.,3.4184604648009,17.5209562445959),(1.,3.67640341012728,
17.5611281776793),(1.,3.93595442406721,17.5331707383463),(1.,4.17942553385076,
17.4389891798963),(1.,4.39022458560904,17.2850018199309),(1.,4.55398597224684,
17.0817026426139),(1.,4.57758255779264,16.0819810822985),(1.,4.65954962583127,
16.8429461509887),(1.,4.67176411731096,16.3254521916688),(1.,4.6997215577828,
16.585003205486)));
#233=COORDINATES_LIST('',48,((0.,-15.9996570373233,0.104759956399687),(0.,
-15.5560443714632,-3.74292445468804),(0.,-15.5056980801839,3.94630548825284),
(0.,-14.2008555552655,-7.37127542959274),(0.,-14.1031132393231,7.5565995606002),
(0.,-12.0135039520861,-10.567673478758),(0.,-11.8740932606157,10.7240808090313),
(0.,-9.12216723397618,-13.1448113305518),(0.,-8.94925756135683,13.2631364714735),
(0.,-5.6962762364289,-14.951670040458),(0.,-5.49999999999999,15.0249792),
(0.,-1.93658639909502,-15.8823686230761),(0.,1.93658639909499,-15.8823686230761),
(0.,5.50000000000001,15.0249792),(0.,5.69627623642887,-14.951670040458),
(0.,8.94925756135687,13.2631364714735),(0.,9.12216723397615,-13.1448113305519),
(0.,11.8740932606157,10.7240808090313),(0.,12.013503952086,-10.567673478758),
(0.,14.1031132393231,7.55659956060015),(0.,14.2008555552655,-7.37127542959277),
(0.,15.5056980801839,3.94630548825279),(0.,15.5560443714632,-3.74292445468807),
(0.,15.9996570373233,0.104759956399651),(1.,-15.9996570373233,0.104759956399687),
(1.,-15.5560443714632,-3.74292445468804),(1.,-15.5056980801839,3.94630548825284),
(1.,-14.2008555552655,-7.37127542959274),(1.,-14.1031132393231,7.5565995606002),
(1.,-12.0135039520861,-10.567673478758),(1.,-11.8740932606157,10.7240808090313),
(1.,-9.12216723397618,-13.1448113305518),(1.,-8.94925756135683,13.2631364714735),
(1.,-5.6962762364289,-14.951670040458),(1.,-5.49999999999999,15.0249792),
(1.,-1.93658639909502,-15.8823686230761),(1.,1.93658639909499,-15.8823686230761),
(1.,5.50000000000001,15.0249792),(1.,5.69627623642887,-14.951670040458),
(1.,8.94925756135687,13.2631364714735),(1.,9.12216723397615,-13.1448113305519),
(1.,11.8740932606157,10.7240808090313),(1.,12.013503952086,-10.567673478758),
(1.,14.1031132393231,7.55659956060015),(1.,14.2008555552655,-7.37127542959277),
(1.,15.5056980801839,3.94630548825279),(1.,15.5560443714632,-3.74292445468807),
(1.,15.9996570373233,0.104759956399651)));
#234=COORDINATES_LIST('',4,((0.,-5.50000000141896,17.6635217345571),(0.,
-1.99999999999999,18.39157416),(1.,-5.50000000141896,17.6635217345571),
(1.,-1.99999999999999,18.39157416)));
#235=COORDINATES_LIST('',4,((0.,-2.,14.86140662),(0.,-2.,18.39157416),(1.,
-2.,14.86140662),(1.,-2.,18.39157416)));
#236=COORDINATES_LIST('',4,((0.,2.,14.86140662),(0.,2.,18.39157416),(1.,
2.,14.86140662),(1.,2.,18.39157416)));
#237=COORDINATES_LIST('',26,((0.,2.70027843756233,16.5378100285519),(0.,
2.72823587630457,16.7973610423558),(0.,2.74045037080377,16.2798670834511),
(0.,2.82241743379264,17.0408321522985),(0.,2.84601402518095,16.0411105923935),
(0.,3.0097754121402,15.8378114155904),(0.,3.22057446385076,15.6838240558963),
(0.,3.46404557338023,15.5896424973399),(0.,3.72359658706139,15.5616850574588),
(0.,3.98153953233845,15.6018569895684),(0.,4.2202960238593,15.7074206428979),
(0.,4.42359520138094,15.8711820289651),(0.,4.577582562,16.08198108),(1.,
2.70027843756233,16.5378100285519),(1.,2.72823587630457,16.7973610423558),
(1.,2.74045037080377,16.2798670834511),(1.,2.82241743379264,17.0408321522985),
(1.,2.84601402518095,16.0411105923935),(1.,3.0097754121402,15.8378114155904),
(1.,3.22057446385076,15.6838240558963),(1.,3.46404557338023,15.5896424973399),
(1.,3.72359658706139,15.5616850574588),(1.,3.98153953233845,15.6018569895684),
(1.,4.2202960238593,15.7074206428979),(1.,4.42359520138094,15.8711820289651),
(1.,4.577582562,16.08198108)));
#238=TESSELLATED_SHELL('PARTBODY',(#210),$);
#239=TESSELLATED_SHELL('PARTBODY',(#211),$);
#240=TESSELLATED_SHELL('PARTBODY',(#212),$);
#241=TESSELLATED_SHELL('PARTBODY',(#213),$);
#242=TESSELLATED_SHELL('PARTBODY',(#214),$);
#243=TESSELLATED_SHELL('PARTBODY',(#215),$);
#244=TESSELLATED_SHELL('PARTBODY',(#216),$);
#245=TESSELLATED_SHELL('PARTBODY',(#217),$);
#246=TESSELLATED_SHELL('PARTBODY',(#218),$);
#247=TESSELLATED_SHELL('PARTBODY',(#219),$);
#248=TESSELLATED_SHELL('PARTBODY',(#220),$);
#249=TESSELLATED_SHELL('PARTBODY',(#221),$);
#250=TESSELLATED_SHELL('PARTBODY',(#222),$);
#251=TESSELLATED_SHELL('PARTBODY',(#223),$);
#252=SHAPE_DEFINITION_REPRESENTATION(#444,#253);
#253=SHAPE_REPRESENTATION('000681_A;1-External Circlip',(#254),#439);
#254=AXIS2_PLACEMENT_3D('',#289,#271,#272);
#255=AXIS2_PLACEMENT_3D('',#305,#273,#274);
#256=AXIS2_PLACEMENT_3D('',#307,#273,#274);
#257=AXIS2_PLACEMENT_3D('',#308,#275,#276);
#258=AXIS2_PLACEMENT_3D('',#310,#275,#276);
#259=AXIS2_PLACEMENT_3D('',#311,#277,#278);
#260=AXIS2_PLACEMENT_3D('',#313,#277,#278);
#261=AXIS2_PLACEMENT_3D('',#314,#279,#280);
#262=AXIS2_PLACEMENT_3D('',#316,#279,#280);
#263=AXIS2_PLACEMENT_3D('',#317,#281,#282);
#264=AXIS2_PLACEMENT_3D('',#319,#281,#282);
#265=AXIS2_PLACEMENT_3D('',#320,#283,#284);
#266=AXIS2_PLACEMENT_3D('',#322,#283,#284);
#267=AXIS2_PLACEMENT_3D('',#323,#285,#286);
#268=AXIS2_PLACEMENT_3D('',#325,#285,#286);
#269=AXIS2_PLACEMENT_3D('',#326,#287,#288);
#270=AXIS2_PLACEMENT_3D('',#328,#287,#288);
#271=DIRECTION('',(0.,0.,1.));
#272=DIRECTION('',(1.,0.,0.));
#273=DIRECTION('',(0.,0.,1.));
#274=DIRECTION('',(1.,0.,0.));
#275=DIRECTION('',(0.,-1.,0.));
#276=DIRECTION('',(1.,0.,0.));
#277=DIRECTION('',(1.,0.,0.));
#278=DIRECTION('',(0.,1.,0.));
#279=DIRECTION('',(0.,1.,0.));
#280=DIRECTION('',(-1.,0.,0.));
#281=DIRECTION('',(0.,0.,-1.));
#282=DIRECTION('',(1.,0.,0.));
#283=DIRECTION('',(-1.,0.,0.));
#284=DIRECTION('',(0.,-1.,0.));
#285=DIRECTION('',(0.577350269189626,-0.577350269189626,0.577350269189626));
#286=DIRECTION('',(0.707106765322401,0.707106797050693,3.17282912720707E-8));
#287=DIRECTION('',(0.718873086818576,-0.585048618558824,0.375419230954334));
#288=DIRECTION('',(0.631219072032975,0.775604591980882,-2.04699331651792E-8));
#289=CARTESIAN_POINT('',(0.,0.,0.));
#290=CARTESIAN_POINT('centre point',(0.,0.,0.));
#291=CARTESIAN_POINT('centre point',(0.,0.,0.));
#292=CARTESIAN_POINT('centre point',(0.,0.,0.));
#293=CARTESIAN_POINT('centre point',(0.,0.,0.));
#294=CARTESIAN_POINT('centre point',(0.,0.,0.));
#295=CARTESIAN_POINT('centre point',(0.,0.,0.));
#296=CARTESIAN_POINT('centre point',(0.,0.,0.));
#297=CARTESIAN_POINT('centre point',(0.,0.,0.));
#298=CARTESIAN_POINT('centre point',(0.,0.,0.));
#299=CARTESIAN_POINT('centre point',(0.,0.,0.));
#300=CARTESIAN_POINT('centre point',(0.,0.,0.));
#301=CARTESIAN_POINT('centre point',(0.,0.,0.));
#302=CARTESIAN_POINT('centre point',(0.,0.,0.));
#303=CARTESIAN_POINT('centre point',(0.,0.,0.));
#304=CARTESIAN_POINT('centre point',(0.,0.,0.));
#305=CARTESIAN_POINT('',(0.,0.,0.));
#306=CARTESIAN_POINT('',(0.,0.,0.114998954772949));
#307=CARTESIAN_POINT('',(-0.0286724596639962,-0.0286724596639962,0.));
#308=CARTESIAN_POINT('',(0.,0.,0.));
#309=CARTESIAN_POINT('',(0.,-1.11204943847656,0.));
#310=CARTESIAN_POINT('',(-0.277265064991609,-0.277265064991609,0.));
#311=CARTESIAN_POINT('',(0.,0.,0.));
#312=CARTESIAN_POINT('',(1.11204943847656,0.,0.));
#313=CARTESIAN_POINT('',(-0.277265064991609,-0.277265064991609,0.));
#314=CARTESIAN_POINT('',(0.,0.,0.));
#315=CARTESIAN_POINT('',(0.,1.11204943847656,0.));
#316=CARTESIAN_POINT('',(-0.277265064991609,-0.277265064991609,0.));
#317=CARTESIAN_POINT('',(0.,0.,0.));
#318=CARTESIAN_POINT('',(0.,0.,-0.114998954772949));
#319=CARTESIAN_POINT('',(-0.0286724596639962,-0.0286724596639962,0.));
#320=CARTESIAN_POINT('',(0.,0.,0.));
#321=CARTESIAN_POINT('',(-1.11204943847656,0.,0.));
#322=CARTESIAN_POINT('',(-0.277265064991609,-0.277265064991609,0.));
#323=CARTESIAN_POINT('',(0.,0.,0.));
#324=CARTESIAN_POINT('',(0.629843322753906,-0.629843322753906,0.629843322753906));
#325=CARTESIAN_POINT('',(-0.27199706283299,-0.27199706283299,0.));
#326=CARTESIAN_POINT('',(0.,0.,0.));
#327=CARTESIAN_POINT('',(0.830263606434755,-0.67570282556274,0.433591033427811));
#328=CARTESIAN_POINT('',(-0.287961769884626,-0.287961769884626,0.));
#329=INTEGER_REPRESENTATION_ITEM('',0.);
#330=INTEGER_REPRESENTATION_ITEM('',1.);
#331=INTEGER_REPRESENTATION_ITEM('number of views',8.);
#332=PROPERTY_DEFINITION_REPRESENTATION(#402,#358);
#333=PROPERTY_DEFINITION_REPRESENTATION(#403,#359);
#334=PROPERTY_DEFINITION_REPRESENTATION(#404,#360);
#335=PROPERTY_DEFINITION_REPRESENTATION(#405,#361);
#336=PROPERTY_DEFINITION_REPRESENTATION(#406,#362);
#337=PROPERTY_DEFINITION_REPRESENTATION(#407,#363);
#338=PROPERTY_DEFINITION_REPRESENTATION(#408,#364);
#339=PROPERTY_DEFINITION_REPRESENTATION(#409,#365);
#340=PROPERTY_DEFINITION_REPRESENTATION(#410,#366);
#341=PROPERTY_DEFINITION_REPRESENTATION(#411,#367);
#342=PROPERTY_DEFINITION_REPRESENTATION(#412,#368);
#343=PROPERTY_DEFINITION_REPRESENTATION(#413,#369);
#344=PROPERTY_DEFINITION_REPRESENTATION(#414,#370);
#345=PROPERTY_DEFINITION_REPRESENTATION(#415,#371);
#346=PROPERTY_DEFINITION_REPRESENTATION(#416,#372);
#347=PROPERTY_DEFINITION_REPRESENTATION(#417,#373);
#348=PROPERTY_DEFINITION_REPRESENTATION(#418,#374);
#349=PROPERTY_DEFINITION_REPRESENTATION(#419,#375);
#350=PROPERTY_DEFINITION_REPRESENTATION(#420,#376);
#351=PROPERTY_DEFINITION_REPRESENTATION(#421,#377);
#352=PROPERTY_DEFINITION_REPRESENTATION(#422,#378);
#353=PROPERTY_DEFINITION_REPRESENTATION(#423,#379);
#354=PROPERTY_DEFINITION_REPRESENTATION(#424,#380);
#355=PROPERTY_DEFINITION_REPRESENTATION(#425,#381);
#356=PROPERTY_DEFINITION_REPRESENTATION(#426,#382);
#357=PROPERTY_DEFINITION_REPRESENTATION(#427,#383);
#358=REPRESENTATION('',(#384),#439);
#359=REPRESENTATION('',(#385),#439);
#360=REPRESENTATION('',(#386),#439);
#361=REPRESENTATION('',(#387),#439);
#362=REPRESENTATION('',(#388),#439);
#363=REPRESENTATION('',(#389),#439);
#364=REPRESENTATION('',(#390),#439);
#365=REPRESENTATION('',(#391),#439);
#366=REPRESENTATION('',(#329),#439);
#367=REPRESENTATION('',(#330),#439);
#368=REPRESENTATION('',(#290),#439);
#369=REPRESENTATION('',(#291),#439);
#370=REPRESENTATION('',(#292),#439);
#371=REPRESENTATION('',(#293),#439);
#372=REPRESENTATION('',(#294),#439);
#373=REPRESENTATION('',(#295),#439);
#374=REPRESENTATION('',(#296),#439);
#375=REPRESENTATION('',(#297),#439);
#376=REPRESENTATION('',(#298),#439);
#377=REPRESENTATION('',(#299),#439);
#378=REPRESENTATION('',(#300),#439);
#379=REPRESENTATION('',(#301),#439);
#380=REPRESENTATION('',(#302),#439);
#381=REPRESENTATION('',(#303),#439);
#382=REPRESENTATION('',(#304),#439);
#383=REPRESENTATION('',(#331),#439);
#384=DESCRIPTIVE_REPRESENTATION_ITEM('','1');
#385=DESCRIPTIVE_REPRESENTATION_ITEM('','000681_A;1-External Circlip');
#386=DESCRIPTIVE_REPRESENTATION_ITEM('','000681');
#387=DESCRIPTIVE_REPRESENTATION_ITEM('','A');
#388=DESCRIPTIVE_REPRESENTATION_ITEM('','External Circlip');
#389=DESCRIPTIVE_REPRESENTATION_ITEM('','000681');
#390=DESCRIPTIVE_REPRESENTATION_ITEM('','Item');
#391=DESCRIPTIVE_REPRESENTATION_ITEM('','000681');
#392=GENERAL_PROPERTY_ASSOCIATION('',$,#428,#402);
#393=GENERAL_PROPERTY_ASSOCIATION('',$,#429,#403);
#394=GENERAL_PROPERTY_ASSOCIATION('',$,#430,#404);
#395=GENERAL_PROPERTY_ASSOCIATION('',$,#431,#405);
#396=GENERAL_PROPERTY_ASSOCIATION('',$,#432,#406);
#397=GENERAL_PROPERTY_ASSOCIATION('',$,#433,#407);
#398=GENERAL_PROPERTY_ASSOCIATION('',$,#434,#408);
#399=GENERAL_PROPERTY_ASSOCIATION('',$,#435,#409);
#400=GENERAL_PROPERTY_ASSOCIATION('',$,#436,#410);
#401=GENERAL_PROPERTY_ASSOCIATION('',$,#437,#411);
#402=PROPERTY_DEFINITION('LAYER',$,#445);
#403=PROPERTY_DEFINITION('Name',$,#445);
#404=PROPERTY_DEFINITION('DB_PART_DESC',$,#445);
#405=PROPERTY_DEFINITION('DB_PART_REV',$,#445);
#406=PROPERTY_DEFINITION('DB_PART_NAME',$,#445);
#407=PROPERTY_DEFINITION('DB_PART_NO',$,#445);
#408=PROPERTY_DEFINITION('DB_PART_TYPE',$,#445);
#409=PROPERTY_DEFINITION('DB_PART_MFKID',$,#445);
#410=PROPERTY_DEFINITION('NX_MaterialMultipleAssigned',$,#445);
#411=PROPERTY_DEFINITION('NX_MaterialMissingAssignments',$,#445);
#412=PROPERTY_DEFINITION('geometric validation property','',#69);
#413=PROPERTY_DEFINITION('geometric validation property','',#70);
#414=PROPERTY_DEFINITION('geometric validation property','',#71);
#415=PROPERTY_DEFINITION('geometric validation property','',#72);
#416=PROPERTY_DEFINITION('geometric validation property','',#73);
#417=PROPERTY_DEFINITION('geometric validation property','',#74);
#418=PROPERTY_DEFINITION('geometric validation property','',#75);
#419=PROPERTY_DEFINITION('geometric validation property','',#76);
#420=PROPERTY_DEFINITION('geometric validation property','',#77);
#421=PROPERTY_DEFINITION('geometric validation property','',#78);
#422=PROPERTY_DEFINITION('geometric validation property','',#79);
#423=PROPERTY_DEFINITION('geometric validation property','',#80);
#424=PROPERTY_DEFINITION('geometric validation property','',#81);
#425=PROPERTY_DEFINITION('geometric validation property','',#82);
#426=PROPERTY_DEFINITION('geometric validation property','',#444);
#427=PROPERTY_DEFINITION('pmi validation property','',#444);
#428=GENERAL_PROPERTY('','LAYER',$);
#429=GENERAL_PROPERTY('','Name',$);
#430=GENERAL_PROPERTY('','DB_PART_DESC',$);
#431=GENERAL_PROPERTY('','DB_PART_REV',$);
#432=GENERAL_PROPERTY('','DB_PART_NAME',$);
#433=GENERAL_PROPERTY('','DB_PART_NO',$);
#434=GENERAL_PROPERTY('','DB_PART_TYPE',$);
#435=GENERAL_PROPERTY('','DB_PART_MFKID',$);
#436=GENERAL_PROPERTY('','NX_MaterialMultipleAssigned',$);
#437=GENERAL_PROPERTY('','NX_MaterialMissingAssignments',$);
#438=MECHANICAL_DESIGN_GEOMETRIC_PRESENTATION_REPRESENTATION('',(#111,#112,
#113,#114,#115,#116,#117,#118,#119,#120,#121,#122,#123,#124),#439);
#439=(
GEOMETRIC_REPRESENTATION_CONTEXT(3)
GLOBAL_UNCERTAINTY_ASSIGNED_CONTEXT((#440))
GLOBAL_UNIT_ASSIGNED_CONTEXT((#443,#442,#441))
REPRESENTATION_CONTEXT('000681_A;1-External Circlip',
'TOP_LEVEL_ASSEMBLY_PART')
);
#440=UNCERTAINTY_MEASURE_WITH_UNIT(LENGTH_MEASURE(0.005),#443,
'DISTANCE_ACCURACY_VALUE','Maximum Tolerance applied to model');
#441=(
NAMED_UNIT(*)
SI_UNIT($,.STERADIAN.)
SOLID_ANGLE_UNIT()
);
#442=(
NAMED_UNIT(*)
PLANE_ANGLE_UNIT()
SI_UNIT($,.RADIAN.)
);
#443=(
LENGTH_UNIT()
NAMED_UNIT(*)
SI_UNIT(.MILLI.,.METRE.)
);
#444=PRODUCT_DEFINITION_SHAPE('','',#445);
#445=PRODUCT_DEFINITION('','',#447,#446);
#446=PRODUCT_DEFINITION_CONTEXT('',#453,'design');
#447=PRODUCT_DEFINITION_FORMATION_WITH_SPECIFIED_SOURCE('','',#449,
 .NOT_KNOWN.);
#448=PRODUCT_RELATED_PRODUCT_CATEGORY('','',(#449));
#449=PRODUCT('000681_A;1-External Circlip',
'000681_A;1-External Circlip','000681_A;1-External Circlip',(#451));
#450=PRODUCT_CATEGORY('','');
#451=PRODUCT_CONTEXT('',#453,'mechanical');
#452=APPLICATION_PROTOCOL_DEFINITION('international standard',
'ap242_managed_model_based_3d_engineering',2011,#453);
#453=APPLICATION_CONTEXT('managed model based 3d engineering');
ENDSEC;
END-ISO-10303-21;
