ISO-10303-21;
HEADER;
/* Generated by software containing ST-Developer
 * from STEP Tools, Inc. (www.steptools.com) 
 */

FILE_DESCRIPTION(
/* description */ (
'CAx-IF Rec.Pracs.---Representation and Presentation of Product Manufa
cturing Information (PMI)---4.0---2014-10-13',
'CAx-IF Rec.Pracs.---3D Tessellated Geometry---0.4---2014-09-14','2;1',
'CAx-IF Rec.Pracs.---User Defined Attributes---1.5---2016-08-15'),
/* implementation_level */ '2;1');

FILE_NAME(
/* name */ '000680_A;1-SKF_6306-2Z7097_Prt3',
/* time_stamp */ '2022-12-15T16:50:23+05:00',
/* author */ (''),
/* organization */ (''),
/* preprocessor_version */ 'ST-DEVELOPER v16.7',
/* originating_system */ 'SIEMENS PLM Software NX 1915',
/* authorisation */ $);

FILE_SCHEMA (('AP242_MANAGED_MODEL_BASED_3D_ENGINEERING_MIM_LF { 1 0 10303 442 1 1 4 }'));
ENDSEC;

DATA;
#10=MECHANICAL_DESIGN_AND_DRAUGHTING_RELATIONSHIP('','',#18,#19);
#11=MECHANICAL_DESIGN_AND_DRAUGHTING_RELATIONSHIP('','',#20,#19);
#12=MECHANICAL_DESIGN_AND_DRAUGHTING_RELATIONSHIP('','',#21,#19);
#13=MECHANICAL_DESIGN_AND_DRAUGHTING_RELATIONSHIP('','',#22,#19);
#14=MECHANICAL_DESIGN_AND_DRAUGHTING_RELATIONSHIP('','',#23,#19);
#15=MECHANICAL_DESIGN_AND_DRAUGHTING_RELATIONSHIP('','',#24,#19);
#16=MECHANICAL_DESIGN_AND_DRAUGHTING_RELATIONSHIP('','',#25,#19);
#17=MECHANICAL_DESIGN_AND_DRAUGHTING_RELATIONSHIP('','',#26,#19);
#18=DRAUGHTING_MODEL('Top',(#45,#36),#269);
#19=DRAUGHTING_MODEL('',(#37),#269);
#20=DRAUGHTING_MODEL('Front',(#46,#38),#269);
#21=DRAUGHTING_MODEL('Right',(#47,#39),#269);
#22=DRAUGHTING_MODEL('Back',(#48,#40),#269);
#23=DRAUGHTING_MODEL('Bottom',(#49,#41),#269);
#24=DRAUGHTING_MODEL('Left',(#50,#42),#269);
#25=DRAUGHTING_MODEL('Isometric',(#51,#43),#269);
#26=DRAUGHTING_MODEL('Trimetric',(#52,#44),#269);
#27=REPRESENTATION_MAP(#124,$);
#28=REPRESENTATION_MAP(#124,$);
#29=REPRESENTATION_MAP(#124,$);
#30=REPRESENTATION_MAP(#124,$);
#31=REPRESENTATION_MAP(#124,$);
#32=REPRESENTATION_MAP(#124,$);
#33=REPRESENTATION_MAP(#124,$);
#34=REPRESENTATION_MAP(#124,$);
#35=REPRESENTATION_MAP(#124,$);
#36=MAPPED_ITEM('',#27,#124);
#37=MAPPED_ITEM('',#28,#124);
#38=MAPPED_ITEM('',#29,#124);
#39=MAPPED_ITEM('',#30,#124);
#40=MAPPED_ITEM('',#31,#124);
#41=MAPPED_ITEM('',#32,#124);
#42=MAPPED_ITEM('',#33,#124);
#43=MAPPED_ITEM('',#34,#124);
#44=MAPPED_ITEM('',#35,#124);
#45=CAMERA_MODEL_D3('Top',#125,#53);
#46=CAMERA_MODEL_D3('Front',#127,#54);
#47=CAMERA_MODEL_D3('Right',#129,#55);
#48=CAMERA_MODEL_D3('Back',#131,#56);
#49=CAMERA_MODEL_D3('Bottom',#133,#57);
#50=CAMERA_MODEL_D3('Left',#135,#58);
#51=CAMERA_MODEL_D3('Isometric',#137,#59);
#52=CAMERA_MODEL_D3('Trimetric',#139,#60);
#53=VIEW_VOLUME(.PARALLEL.,#166,0.,0.,.F.,0.,.F.,.F.,#61);
#54=VIEW_VOLUME(.PARALLEL.,#169,0.,0.,.F.,0.,.F.,.F.,#62);
#55=VIEW_VOLUME(.PARALLEL.,#172,0.,0.,.F.,0.,.F.,.F.,#63);
#56=VIEW_VOLUME(.PARALLEL.,#175,0.,0.,.F.,0.,.F.,.F.,#64);
#57=VIEW_VOLUME(.PARALLEL.,#178,0.,0.,.F.,0.,.F.,.F.,#65);
#58=VIEW_VOLUME(.PARALLEL.,#181,0.,0.,.F.,0.,.F.,.F.,#66);
#59=VIEW_VOLUME(.PARALLEL.,#184,-0.00400666666030884,0.,.F.,0.,.F.,.F.,
#67);
#60=VIEW_VOLUME(.PARALLEL.,#187,0.,0.,.F.,0.,.F.,.F.,#68);
#61=PLANAR_BOX('',0.0573449193279923,0.0573449193279923,#126);
#62=PLANAR_BOX('',0.554530120472109,0.554530120472109,#128);
#63=PLANAR_BOX('',0.554530129983217,0.554530129983217,#130);
#64=PLANAR_BOX('',0.554530078623231,0.554530078623231,#132);
#65=PLANAR_BOX('',0.0573449193279923,0.0573449193279923,#134);
#66=PLANAR_BOX('',0.554530129983217,0.554530129983217,#136);
#67=PLANAR_BOX('',0.543994137609429,0.543994137609429,#138);
#68=PLANAR_BOX('',0.575923539769252,0.575923539769252,#140);
#69=SHAPE_ASPECT('','Solid',#274,.F.);
#70=SHAPE_ASPECT('','Solid',#274,.F.);
#71=SHAPE_ASPECT('','Solid',#274,.F.);
#72=SHAPE_ASPECT('','Solid',#274,.F.);
#73=SHAPE_REPRESENTATION_RELATIONSHIP('','',#123,#77);
#74=SHAPE_REPRESENTATION_RELATIONSHIP('','',#123,#78);
#75=SHAPE_REPRESENTATION_RELATIONSHIP('','',#123,#79);
#76=SHAPE_REPRESENTATION_RELATIONSHIP('','',#123,#80);
#77=TESSELLATED_SHAPE_REPRESENTATION('',(#118),#269);
#78=TESSELLATED_SHAPE_REPRESENTATION('',(#119),#269);
#79=TESSELLATED_SHAPE_REPRESENTATION('',(#120),#269);
#80=TESSELLATED_SHAPE_REPRESENTATION('',(#121),#269);
#81=STYLED_ITEM('',(#85),#110);
#82=STYLED_ITEM('',(#86),#111);
#83=STYLED_ITEM('',(#87),#112);
#84=STYLED_ITEM('',(#88),#113);
#85=PRESENTATION_STYLE_ASSIGNMENT((#89));
#86=PRESENTATION_STYLE_ASSIGNMENT((#90));
#87=PRESENTATION_STYLE_ASSIGNMENT((#91));
#88=PRESENTATION_STYLE_ASSIGNMENT((#92));
#89=SURFACE_STYLE_USAGE(.BOTH.,#93);
#90=SURFACE_STYLE_USAGE(.BOTH.,#94);
#91=SURFACE_STYLE_USAGE(.BOTH.,#95);
#92=SURFACE_STYLE_USAGE(.BOTH.,#96);
#93=SURFACE_SIDE_STYLE('',(#97));
#94=SURFACE_SIDE_STYLE('',(#98));
#95=SURFACE_SIDE_STYLE('',(#99));
#96=SURFACE_SIDE_STYLE('',(#100));
#97=SURFACE_STYLE_FILL_AREA(#101);
#98=SURFACE_STYLE_FILL_AREA(#102);
#99=SURFACE_STYLE_FILL_AREA(#103);
#100=SURFACE_STYLE_FILL_AREA(#104);
#101=FILL_AREA_STYLE('',(#105));
#102=FILL_AREA_STYLE('',(#106));
#103=FILL_AREA_STYLE('',(#107));
#104=FILL_AREA_STYLE('',(#108));
#105=FILL_AREA_STYLE_COLOUR('',#109);
#106=FILL_AREA_STYLE_COLOUR('',#109);
#107=FILL_AREA_STYLE_COLOUR('',#109);
#108=FILL_AREA_STYLE_COLOUR('',#109);
#109=DRAUGHTING_PRE_DEFINED_COLOUR('yellow');
#110=COMPLEX_TRIANGULATED_FACE($,#114,79,((-0.965925826289068,0.258819045102521,
0.),(-0.965925826289068,0.25,0.0669872981077808),(-0.866025403784438,0.482962913144534,
0.12940952255126),(-0.965925826289068,0.224143868042014,0.129409522551261),
(-0.866025403784438,0.43301270189222,0.25),(-0.965925826289068,0.18301270189222,
0.18301270189222),(-0.866025403784438,0.353553390593274,0.353553390593274),
(-0.965925826289068,0.129409522551261,0.224143868042014),(-0.866025403784438,
0.25,0.43301270189222),(-0.965925826289068,0.0669872981077809,0.25),(-0.866025403784438,
0.129409522551261,0.482962913144534),(-0.965925826289068,0.,0.258819045102521),
(-0.866025403784438,0.,0.5),(-0.866025403784438,0.5,0.),(-0.707106781186547,
0.683012701892219,0.183012701892219),(-0.707106781186547,0.612372435695795,
0.353553390593274),(-0.707106781186547,0.5,0.5),(-0.707106781186547,0.353553390593274,
0.612372435695794),(-0.707106781186547,0.18301270189222,0.683012701892219),
(-0.707106781186547,0.,0.707106781186548),(-0.707106781186547,0.707106781186548,
0.),(-0.5,0.836516303737808,0.224143868042013),(-0.5,0.75,0.433012701892219),
(-0.5,0.612372435695795,0.612372435695794),(-0.5,0.43301270189222,0.75),
(-0.5,0.224143868042014,0.836516303737808),(-0.5,0.,0.866025403784439),
(-0.5,0.866025403784439,0.),(-0.258819045102521,0.93301270189222,0.25),
(-0.258819045102521,0.836516303737808,0.482962913144534),(-0.258819045102521,
0.68301270189222,0.683012701892219),(-0.258819045102521,0.482962913144534,
0.836516303737808),(-0.258819045102521,0.25,0.933012701892219),(-0.258819045102521,
0.,0.965925826289068),(-0.258819045102521,0.965925826289068,0.),(0.,0.965925826289068,
0.258819045102521),(0.,0.866025403784439,0.5),(0.,0.707106781186548,0.707106781186547),
(0.,0.5,0.866025403784438),(0.,0.258819045102521,0.965925826289068),(0.,
0.,1.),(0.,1.,0.),(0.258819045102521,0.933012701892219,0.25),(0.258819045102521,
0.836516303737808,0.482962913144534),(0.258819045102521,0.683012701892219,
0.683012701892219),(0.258819045102521,0.482962913144534,0.836516303737808),
(0.258819045102521,0.25,0.933012701892219),(0.258819045102521,0.,0.965925826289068),
(0.258819045102521,0.965925826289068,0.),(0.5,0.836516303737808,0.224143868042013),
(0.5,0.75,0.433012701892219),(0.5,0.612372435695795,0.612372435695794),
(0.5,0.433012701892219,0.75),(0.5,0.224143868042014,0.836516303737808),
(0.5,0.,0.866025403784438),(0.5,0.866025403784438,0.),(0.707106781186547,
0.683012701892219,0.183012701892219),(0.707106781186547,0.612372435695795,
0.353553390593274),(0.707106781186547,0.5,0.5),(0.707106781186547,0.353553390593274,
0.612372435695794),(0.707106781186547,0.18301270189222,0.683012701892219),
(0.707106781186547,0.,0.707106781186547),(0.707106781186547,0.707106781186547,
0.),(0.866025403784439,0.482962913144534,0.12940952255126),(0.866025403784439,
0.433012701892219,0.25),(0.866025403784439,0.353553390593274,0.353553390593273),
(0.866025403784439,0.25,0.433012701892219),(0.866025403784439,0.12940952255126,
0.482962913144534),(0.866025403784439,0.,0.5),(0.866025403784439,0.5,0.),
(0.965925826289068,0.25,0.0669872981077805),(0.965925826289068,0.224143868042013,
0.12940952255126),(0.965925826289068,0.183012701892219,0.183012701892219),
(0.965925826289068,0.12940952255126,0.224143868042013),(0.965925826289068,
0.0669872981077806,0.249999999999999),(0.965925826289068,0.,0.25881904510252),
(1.,0.,0.),(0.965925826289068,0.25881904510252,0.),(-1.,0.,0.)),$,(72,73,
66,74,67,75,68,76,69,77,70,78,71,65,59,60,61,62,63,64,58,52,53,54,55,56,
57,51,45,46,47,48,49,50,44,38,39,40,41,42,43,37,31,32,33,34,35,36,30,24,
25,26,27,28,29,23,17,18,19,20,21,22,16,10,11,12,13,14,15,9,3,4,5,6,7,8,
1,2,79),((1,2,3),(2,4,5),(4,6,7),(6,8,9),(8,10,11),(10,12,13),(14,3,15),
(3,5,16),(5,7,17),(7,9,18),(9,11,19),(11,13,20),(21,15,22),(15,16,23),(16,
17,24),(17,18,25),(18,19,26),(19,20,27),(28,22,29),(22,23,30),(23,24,31),
(24,25,32),(25,26,33),(26,27,34),(35,29,36),(29,30,37),(30,31,38),(31,32,
39),(32,33,40),(33,34,41),(42,36,43),(36,37,44),(37,38,45),(38,39,46),(39,
40,47),(40,41,48),(49,43,50),(43,44,51),(44,45,52),(45,46,53),(46,47,54),
(47,48,55),(56,50,57),(50,51,58),(51,52,59),(52,53,60),(53,54,61),(54,55,
62),(63,57,64),(57,58,65),(58,59,66),(59,60,67),(60,61,68),(61,62,69),(70,
64,71),(64,65,72),(65,66,73),(66,67,74),(67,68,75),(68,69,76),(77,75,76),
(77,74,75),(77,73,74),(77,72,73),(77,71,72),(77,78,71),(76,75,68),(75,74,
67),(74,73,66),(73,72,65),(72,71,64),(71,78,70),(69,68,61),(68,67,60),(67,
66,59),(66,65,58),(65,64,57),(64,70,63),(62,61,54),(61,60,53),(60,59,52),
(59,58,51),(58,57,50),(57,63,56),(55,54,47),(54,53,46),(53,52,45),(52,51,
44),(51,50,43),(50,56,49),(48,47,40),(47,46,39),(46,45,38),(45,44,37),(44,
43,36),(43,49,42),(41,40,33),(40,39,32),(39,38,31),(38,37,30),(37,36,29),
(36,42,35),(34,33,26),(33,32,25),(32,31,24),(31,30,23),(30,29,22),(29,35,
28),(27,26,19),(26,25,18),(25,24,17),(24,23,16),(23,22,15),(22,28,21),(20,
19,11),(19,18,9),(18,17,7),(17,16,5),(16,15,3),(15,21,14),(13,11,10),(11,
9,8),(9,7,6),(7,5,4),(5,3,2),(3,14,1),(12,10,79),(10,8,79),(8,6,79),(6,
4,79),(4,2,79),(2,1,79)),());
#111=COMPLEX_TRIANGULATED_FACE($,#115,79,((-0.965925826289068,0.,0.258819045102521),
(-0.965925826289068,-0.0669872981077808,0.25),(-0.866025403784438,-0.12940952255126,
0.482962913144535),(-0.965925826289068,-0.129409522551261,0.224143868042014),
(-0.866025403784438,-0.25,0.43301270189222),(-0.965925826289068,-0.18301270189222,
0.18301270189222),(-0.866025403784438,-0.353553390593274,0.353553390593274),
(-0.965925826289068,-0.224143868042014,0.129409522551261),(-0.866025403784438,
-0.43301270189222,0.25),(-0.965925826289068,-0.25,0.0669872981077808),(-0.866025403784438,
-0.482962913144535,0.129409522551261),(-0.965925826289068,-0.258819045102521,
0.),(-0.866025403784438,-0.5,0.),(-0.866025403784438,0.,0.5),(-0.707106781186547,
-0.183012701892219,0.68301270189222),(-0.707106781186547,-0.353553390593274,
0.612372435695795),(-0.707106781186547,-0.5,0.5),(-0.707106781186547,-0.612372435695795,
0.353553390593274),(-0.707106781186547,-0.683012701892219,0.183012701892219),
(-0.707106781186547,-0.707106781186548,0.),(-0.707106781186547,0.,0.707106781186548),
(-0.5,-0.224143868042013,0.836516303737808),(-0.5,-0.433012701892219,0.75),
(-0.5,-0.612372435695794,0.612372435695795),(-0.5,-0.75,0.433012701892219),
(-0.5,-0.836516303737808,0.224143868042014),(-0.5,-0.866025403784439,0.),
(-0.5,0.,0.866025403784439),(-0.25881904510252,-0.25,0.93301270189222),
(-0.25881904510252,-0.482962913144534,0.836516303737808),(-0.25881904510252,
-0.683012701892219,0.68301270189222),(-0.25881904510252,-0.836516303737808,
0.482962913144534),(-0.25881904510252,-0.933012701892219,0.25),(-0.25881904510252,
-0.965925826289068,0.),(-0.25881904510252,0.,0.965925826289068),(0.,-0.258819045102521,
0.965925826289068),(0.,-0.5,0.866025403784439),(0.,-0.707106781186547,0.707106781186548),
(0.,-0.866025403784439,0.5),(0.,-0.965925826289068,0.258819045102521),(0.,
-1.,0.),(0.,0.,1.),(0.258819045102521,-0.25,0.933012701892219),(0.258819045102521,
-0.482962913144534,0.836516303737808),(0.258819045102521,-0.683012701892219,
0.683012701892219),(0.258819045102521,-0.836516303737808,0.482962913144534),
(0.258819045102521,-0.933012701892219,0.25),(0.258819045102521,-0.965925826289068,
0.),(0.258819045102521,0.,0.965925826289068),(0.5,-0.224143868042013,0.836516303737808),
(0.5,-0.433012701892219,0.75),(0.5,-0.612372435695794,0.612372435695794),
(0.5,-0.75,0.433012701892219),(0.5,-0.836516303737808,0.224143868042013),
(0.5,-0.866025403784438,0.),(0.5,0.,0.866025403784438),(0.707106781186548,
-0.183012701892219,0.683012701892219),(0.707106781186548,-0.353553390593274,
0.612372435695794),(0.707106781186548,-0.5,0.5),(0.707106781186548,-0.612372435695794,
0.353553390593274),(0.707106781186548,-0.683012701892219,0.183012701892219),
(0.707106781186548,-0.707106781186547,0.),(0.707106781186548,0.,0.707106781186547),
(0.866025403784439,-0.12940952255126,0.482962913144534),(0.866025403784439,
-0.25,0.433012701892219),(0.866025403784439,-0.353553390593274,0.353553390593274),
(0.866025403784439,-0.433012701892219,0.25),(0.866025403784439,-0.482962913144534,
0.12940952255126),(0.866025403784439,-0.5,0.),(0.866025403784439,0.,0.5),
(0.965925826289068,-0.0669872981077806,0.25),(0.965925826289068,-0.12940952255126,
0.224143868042013),(0.965925826289068,-0.183012701892219,0.183012701892219),
(0.965925826289068,-0.224143868042013,0.12940952255126),(0.965925826289068,
-0.25,0.0669872981077807),(0.965925826289068,-0.258819045102521,0.),(1.,
0.,0.),(0.965925826289068,0.,0.258819045102521),(-1.,0.,0.)),$,(72,73,66,
74,67,75,68,76,69,77,70,78,71,65,59,60,61,62,63,64,58,52,53,54,55,56,57,
51,45,46,47,48,49,50,44,38,39,40,41,42,43,37,31,32,33,34,35,36,30,24,25,
26,27,28,29,23,17,18,19,20,21,22,16,10,11,12,13,14,15,9,3,4,5,6,7,8,1,2,
79),((1,2,3),(2,4,5),(4,6,7),(6,8,9),(8,10,11),(10,12,13),(14,3,15),(3,
5,16),(5,7,17),(7,9,18),(9,11,19),(11,13,20),(21,15,22),(15,16,23),(16,
17,24),(17,18,25),(18,19,26),(19,20,27),(28,22,29),(22,23,30),(23,24,31),
(24,25,32),(25,26,33),(26,27,34),(35,29,36),(29,30,37),(30,31,38),(31,32,
39),(32,33,40),(33,34,41),(42,36,43),(36,37,44),(37,38,45),(38,39,46),(39,
40,47),(40,41,48),(49,43,50),(43,44,51),(44,45,52),(45,46,53),(46,47,54),
(47,48,55),(56,50,57),(50,51,58),(51,52,59),(52,53,60),(53,54,61),(54,55,
62),(63,57,64),(57,58,65),(58,59,66),(59,60,67),(60,61,68),(61,62,69),(70,
64,71),(64,65,72),(65,66,73),(66,67,74),(67,68,75),(68,69,76),(77,75,76),
(77,74,75),(77,73,74),(77,72,73),(77,71,72),(77,78,71),(76,75,68),(75,74,
67),(74,73,66),(73,72,65),(72,71,64),(71,78,70),(69,68,61),(68,67,60),(67,
66,59),(66,65,58),(65,64,57),(64,70,63),(62,61,54),(61,60,53),(60,59,52),
(59,58,51),(58,57,50),(57,63,56),(55,54,47),(54,53,46),(53,52,45),(52,51,
44),(51,50,43),(50,56,49),(48,47,40),(47,46,39),(46,45,38),(45,44,37),(44,
43,36),(43,49,42),(41,40,33),(40,39,32),(39,38,31),(38,37,30),(37,36,29),
(36,42,35),(34,33,26),(33,32,25),(32,31,24),(31,30,23),(30,29,22),(29,35,
28),(27,26,19),(26,25,18),(25,24,17),(24,23,16),(23,22,15),(22,28,21),(20,
19,11),(19,18,9),(18,17,7),(17,16,5),(16,15,3),(15,21,14),(13,11,10),(11,
9,8),(9,7,6),(7,5,4),(5,3,2),(3,14,1),(12,10,79),(10,8,79),(8,6,79),(6,
4,79),(4,2,79),(2,1,79)),());
#112=COMPLEX_TRIANGULATED_FACE($,#116,79,((-0.965925826289068,0.,-0.258819045102521),
(-0.965925826289068,0.0669872981077808,-0.25),(-0.866025403784438,0.12940952255126,
-0.482962913144535),(-0.965925826289068,0.129409522551261,-0.224143868042014),
(-0.866025403784438,0.25,-0.43301270189222),(-0.965925826289068,0.18301270189222,
-0.18301270189222),(-0.866025403784438,0.353553390593274,-0.353553390593274),
(-0.965925826289068,0.224143868042014,-0.129409522551261),(-0.866025403784438,
0.43301270189222,-0.25),(-0.965925826289068,0.25,-0.0669872981077808),(-0.866025403784438,
0.482962913144535,-0.129409522551261),(-0.965925826289068,0.258819045102521,
0.),(-0.866025403784438,0.5,0.),(-0.866025403784438,0.,-0.5),(-0.707106781186547,
0.183012701892219,-0.68301270189222),(-0.707106781186547,0.353553390593274,
-0.612372435695795),(-0.707106781186547,0.5,-0.5),(-0.707106781186547,0.612372435695795,
-0.353553390593274),(-0.707106781186547,0.683012701892219,-0.183012701892219),
(-0.707106781186547,0.707106781186548,0.),(-0.707106781186547,0.,-0.707106781186548),
(-0.5,0.224143868042013,-0.836516303737808),(-0.5,0.433012701892219,-0.75),
(-0.5,0.612372435695794,-0.612372435695795),(-0.5,0.75,-0.433012701892219),
(-0.5,0.836516303737808,-0.224143868042014),(-0.5,0.866025403784439,0.),
(-0.5,0.,-0.866025403784439),(-0.25881904510252,0.25,-0.93301270189222),
(-0.25881904510252,0.482962913144534,-0.836516303737808),(-0.25881904510252,
0.683012701892219,-0.68301270189222),(-0.25881904510252,0.836516303737808,
-0.482962913144534),(-0.25881904510252,0.933012701892219,-0.25),(-0.25881904510252,
0.965925826289068,0.),(-0.25881904510252,0.,-0.965925826289068),(0.,0.258819045102521,
-0.965925826289068),(0.,0.5,-0.866025403784439),(0.,0.707106781186547,-0.707106781186548),
(0.,0.866025403784439,-0.5),(0.,0.965925826289068,-0.258819045102521),(0.,
1.,0.),(0.,0.,-1.),(0.258819045102521,0.25,-0.933012701892219),(0.258819045102521,
0.482962913144534,-0.836516303737808),(0.258819045102521,0.683012701892219,
-0.683012701892219),(0.258819045102521,0.836516303737808,-0.482962913144534),
(0.258819045102521,0.933012701892219,-0.25),(0.258819045102521,0.965925826289068,
0.),(0.258819045102521,0.,-0.965925826289068),(0.5,0.224143868042013,-0.836516303737808),
(0.5,0.433012701892219,-0.75),(0.5,0.612372435695794,-0.612372435695794),
(0.5,0.75,-0.433012701892219),(0.5,0.836516303737808,-0.224143868042013),
(0.5,0.866025403784438,0.),(0.5,0.,-0.866025403784438),(0.707106781186548,
0.183012701892219,-0.683012701892219),(0.707106781186548,0.353553390593274,
-0.612372435695794),(0.707106781186548,0.5,-0.5),(0.707106781186548,0.612372435695794,
-0.353553390593274),(0.707106781186548,0.683012701892219,-0.183012701892219),
(0.707106781186548,0.707106781186547,0.),(0.707106781186548,0.,-0.707106781186547),
(0.866025403784439,0.12940952255126,-0.482962913144534),(0.866025403784439,
0.25,-0.433012701892219),(0.866025403784439,0.353553390593274,-0.353553390593274),
(0.866025403784439,0.433012701892219,-0.25),(0.866025403784439,0.482962913144534,
-0.12940952255126),(0.866025403784439,0.5,0.),(0.866025403784439,0.,-0.5),
(0.965925826289068,0.0669872981077806,-0.25),(0.965925826289068,0.12940952255126,
-0.224143868042013),(0.965925826289068,0.183012701892219,-0.183012701892219),
(0.965925826289068,0.224143868042013,-0.12940952255126),(0.965925826289068,
0.25,-0.0669872981077807),(0.965925826289068,0.258819045102521,0.),(1.,
0.,0.),(0.965925826289068,0.,-0.258819045102521),(-1.,0.,0.)),$,(78,77,
70,76,69,75,68,74,67,73,66,72,65,71,63,62,61,60,59,58,64,56,55,54,53,52,
51,57,49,48,47,46,45,44,50,42,41,40,39,38,37,43,35,34,33,32,31,30,36,28,
27,26,25,24,23,29,21,20,19,18,17,16,22,14,13,12,11,10,9,15,7,6,5,4,3,2,
1,8,79),((1,2,3),(2,4,5),(4,6,7),(6,8,9),(8,10,11),(10,12,13),(14,3,15),
(3,5,16),(5,7,17),(7,9,18),(9,11,19),(11,13,20),(21,15,22),(15,16,23),(16,
17,24),(17,18,25),(18,19,26),(19,20,27),(28,22,29),(22,23,30),(23,24,31),
(24,25,32),(25,26,33),(26,27,34),(35,29,36),(29,30,37),(30,31,38),(31,32,
39),(32,33,40),(33,34,41),(42,36,43),(36,37,44),(37,38,45),(38,39,46),(39,
40,47),(40,41,48),(49,43,50),(43,44,51),(44,45,52),(45,46,53),(46,47,54),
(47,48,55),(56,50,57),(50,51,58),(51,52,59),(52,53,60),(53,54,61),(54,55,
62),(63,57,64),(57,58,65),(58,59,66),(59,60,67),(60,61,68),(61,62,69),(70,
64,71),(64,65,72),(65,66,73),(66,67,74),(67,68,75),(68,69,76),(77,75,76),
(77,74,75),(77,73,74),(77,72,73),(77,71,72),(77,78,71),(76,75,68),(75,74,
67),(74,73,66),(73,72,65),(72,71,64),(71,78,70),(69,68,61),(68,67,60),(67,
66,59),(66,65,58),(65,64,57),(64,70,63),(62,61,54),(61,60,53),(60,59,52),
(59,58,51),(58,57,50),(57,63,56),(55,54,47),(54,53,46),(53,52,45),(52,51,
44),(51,50,43),(50,56,49),(48,47,40),(47,46,39),(46,45,38),(45,44,37),(44,
43,36),(43,49,42),(41,40,33),(40,39,32),(39,38,31),(38,37,30),(37,36,29),
(36,42,35),(34,33,26),(33,32,25),(32,31,24),(31,30,23),(30,29,22),(29,35,
28),(27,26,19),(26,25,18),(25,24,17),(24,23,16),(23,22,15),(22,28,21),(20,
19,11),(19,18,9),(18,17,7),(17,16,5),(16,15,3),(15,21,14),(13,11,10),(11,
9,8),(9,7,6),(7,5,4),(5,3,2),(3,14,1),(12,10,79),(10,8,79),(8,6,79),(6,
4,79),(4,2,79),(2,1,79)),());
#113=COMPLEX_TRIANGULATED_FACE($,#117,79,((-0.965925826289068,-0.258819045102521,
0.),(-0.965925826289068,-0.25,-0.0669872981077807),(-0.866025403784438,
-0.482962913144535,-0.129409522551261),(-0.965925826289068,-0.224143868042013,
-0.12940952255126),(-0.866025403784438,-0.43301270189222,-0.25),(-0.965925826289068,
-0.183012701892219,-0.183012701892219),(-0.866025403784438,-0.353553390593274,
-0.353553390593274),(-0.965925826289068,-0.12940952255126,-0.224143868042013),
(-0.866025403784438,-0.25,-0.43301270189222),(-0.965925826289068,-0.0669872981077807,
-0.25),(-0.866025403784438,-0.129409522551261,-0.482962913144535),(-0.965925826289068,
0.,-0.258819045102521),(-0.866025403784438,0.,-0.500000000000001),(-0.866025403784438,
-0.500000000000001,0.),(-0.707106781186547,-0.68301270189222,-0.183012701892219),
(-0.707106781186547,-0.612372435695795,-0.353553390593274),(-0.707106781186547,
-0.5,-0.5),(-0.707106781186547,-0.353553390593274,-0.612372435695795),(-0.707106781186547,
-0.18301270189222,-0.68301270189222),(-0.707106781186547,0.,-0.707106781186548),
(-0.707106781186547,-0.707106781186548,0.),(-0.499999999999999,-0.836516303737808,
-0.224143868042013),(-0.499999999999999,-0.75,-0.433012701892219),(-0.499999999999999,
-0.612372435695795,-0.612372435695795),(-0.499999999999999,-0.43301270189222,
-0.75),(-0.499999999999999,-0.224143868042014,-0.836516303737808),(-0.499999999999999,
0.,-0.866025403784439),(-0.499999999999999,-0.866025403784439,0.),(-0.25881904510252,
-0.93301270189222,-0.25),(-0.25881904510252,-0.836516303737808,-0.482962913144534),
(-0.25881904510252,-0.68301270189222,-0.683012701892219),(-0.25881904510252,
-0.482962913144534,-0.836516303737808),(-0.25881904510252,-0.25,-0.933012701892219),
(-0.25881904510252,0.,-0.965925826289068),(-0.25881904510252,-0.965925826289068,
0.),(0.,-0.965925826289068,-0.258819045102521),(0.,-0.866025403784439,-0.5),
(0.,-0.707106781186548,-0.707106781186547),(0.,-0.5,-0.866025403784439),
(0.,-0.258819045102521,-0.965925826289068),(0.,0.,-1.),(0.,-1.,0.),(0.258819045102521,
-0.933012701892219,-0.25),(0.258819045102521,-0.836516303737808,-0.482962913144534),
(0.258819045102521,-0.683012701892219,-0.683012701892219),(0.258819045102521,
-0.482962913144534,-0.836516303737808),(0.258819045102521,-0.25,-0.933012701892219),
(0.258819045102521,0.,-0.965925826289068),(0.258819045102521,-0.965925826289068,
0.),(0.5,-0.836516303737808,-0.224143868042013),(0.5,-0.75,-0.433012701892219),
(0.5,-0.612372435695794,-0.612372435695794),(0.5,-0.433012701892219,-0.75),
(0.5,-0.224143868042014,-0.836516303737808),(0.5,0.,-0.866025403784438),
(0.5,-0.866025403784438,0.),(0.707106781186548,-0.683012701892219,-0.183012701892219),
(0.707106781186548,-0.612372435695794,-0.353553390593274),(0.707106781186548,
-0.5,-0.5),(0.707106781186548,-0.353553390593274,-0.612372435695794),(0.707106781186548,
-0.183012701892219,-0.683012701892219),(0.707106781186548,0.,-0.707106781186547),
(0.707106781186548,-0.707106781186547,0.),(0.866025403784439,-0.482962913144534,
-0.12940952255126),(0.866025403784439,-0.433012701892219,-0.25),(0.866025403784439,
-0.353553390593274,-0.353553390593274),(0.866025403784439,-0.25,-0.433012701892219),
(0.866025403784439,-0.12940952255126,-0.482962913144534),(0.866025403784439,
0.,-0.5),(0.866025403784439,-0.5,0.),(0.965925826289068,-0.25,-0.0669872981077807),
(0.965925826289068,-0.224143868042014,-0.12940952255126),(0.965925826289068,
-0.183012701892219,-0.183012701892219),(0.965925826289068,-0.129409522551261,
-0.224143868042014),(0.965925826289068,-0.0669872981077808,-0.25),(0.965925826289068,
0.,-0.258819045102521),(1.,0.,0.),(0.965925826289068,-0.258819045102521,
0.),(-1.,0.,0.)),$,(78,77,70,76,69,75,68,74,67,73,66,72,65,71,63,62,61,
60,59,58,64,56,55,54,53,52,51,57,49,48,47,46,45,44,50,42,41,40,39,38,37,
43,35,34,33,32,31,30,36,28,27,26,25,24,23,29,21,20,19,18,17,16,22,14,13,
12,11,10,9,15,7,6,5,4,3,2,1,8,79),((1,2,3),(2,4,5),(4,6,7),(6,8,9),(8,10,
11),(10,12,13),(14,3,15),(3,5,16),(5,7,17),(7,9,18),(9,11,19),(11,13,20),
(21,15,22),(15,16,23),(16,17,24),(17,18,25),(18,19,26),(19,20,27),(28,22,
29),(22,23,30),(23,24,31),(24,25,32),(25,26,33),(26,27,34),(35,29,36),(29,
30,37),(30,31,38),(31,32,39),(32,33,40),(33,34,41),(42,36,43),(36,37,44),
(37,38,45),(38,39,46),(39,40,47),(40,41,48),(49,43,50),(43,44,51),(44,45,
52),(45,46,53),(46,47,54),(47,48,55),(56,50,57),(50,51,58),(51,52,59),(52,
53,60),(53,54,61),(54,55,62),(63,57,64),(57,58,65),(58,59,66),(59,60,67),
(60,61,68),(61,62,69),(70,64,71),(64,65,72),(65,66,73),(66,67,74),(67,68,
75),(68,69,76),(77,75,76),(77,74,75),(77,73,74),(77,72,73),(77,71,72),(77,
78,71),(76,75,68),(75,74,67),(74,73,66),(73,72,65),(72,71,64),(71,78,70),
(69,68,61),(68,67,60),(67,66,59),(66,65,58),(65,64,57),(64,70,63),(62,61,
54),(61,60,53),(60,59,52),(59,58,51),(58,57,50),(57,63,56),(55,54,47),(54,
53,46),(53,52,45),(52,51,44),(51,50,43),(50,56,49),(48,47,40),(47,46,39),
(46,45,38),(45,44,37),(44,43,36),(43,49,42),(41,40,33),(40,39,32),(39,38,
31),(38,37,30),(37,36,29),(36,42,35),(34,33,26),(33,32,25),(32,31,24),(31,
30,23),(30,29,22),(29,35,28),(27,26,19),(26,25,18),(25,24,17),(24,23,16),
(23,22,15),(22,28,21),(20,19,11),(19,18,9),(18,17,7),(17,16,5),(16,15,3),
(15,21,14),(13,11,10),(11,9,8),(9,7,6),(7,5,4),(5,3,2),(3,14,1),(12,10,
79),(10,8,79),(8,6,79),(6,4,79),(4,2,79),(2,1,79)),());
#114=COORDINATES_LIST('',79,((3.53100000000001,19.52,4.46440993303868E-32),
(3.66624039545869,18.4927472099881,1.8870327618049E-16),(3.66624039545869,
18.52775,-0.265872586189781),(3.66624039545869,18.6303729877413,-0.513626395005951),
(3.66624039545869,18.7936225861898,-0.726377413810217),(3.66624039545869,
19.006373604994,-0.889627012258749),(3.66624039545869,19.2541274138102,
-0.992249999999998),(3.66624039545869,19.52,-1.0272527900119),(4.06274517237957,
17.5355,3.64546735936188E-16),(4.06274517237957,17.6031201977293,-0.513626395005951),
(4.06274517237957,17.8013725861898,-0.992249999999998),(4.06274517237957,
18.1167465927353,-1.4032534072647),(4.06274517237957,18.52775,-1.71862741381022),
(4.06274517237957,19.006373604994,-1.91687980227065),(4.06274517237957,
19.52,-1.9845),(4.6934931854706,16.7134931854706,5.15546938079801E-16),
(4.6934931854706,16.8091225861898,-0.726377413810218),(4.6934931854706,
17.0894938027234,-1.4032534072647),(4.6934931854706,17.5355,-1.9845),(4.6934931854706,
18.1167465927353,-2.43050619727661),(4.6934931854706,18.7936225861898,-2.71087741381022),
(4.6934931854706,19.52,-2.80650681452941),(5.5155,16.0827451723796,6.31413468374873E-16),
(5.5155,16.1998667904646,-0.88962701225875),(5.5155,16.54325,-1.71862741381022),
(5.5155,17.0894938027234,-2.43050619727661),(5.5155,17.8013725861898,-2.97675),
(5.5155,18.6303729877413,-3.32013320953536),(5.5155,19.52,-3.43725482762043),
(6.4727472099881,15.6862403954587,7.04250214260291E-16),(6.4727472099881,
15.8168725861898,-0.992249999999998),(6.4727472099881,16.1998667904646,
-1.91687980227065),(6.4727472099881,16.8091225861898,-2.71087741381022),
(6.4727472099881,17.6031201977293,-3.32013320953536),(6.4727472099881,18.52775,
-3.70312741381021),(6.4727472099881,19.52,-3.83375960454131),(7.5,15.551,
7.29093471872376E-16),(7.5,15.6862403954587,-1.0272527900119),(7.5,16.0827451723796,
-1.9845),(7.5,16.7134931854706,-2.8065068145294),(7.5,17.5355,-3.43725482762043),
(7.5,18.4927472099881,-3.83375960454131),(7.5,19.52,-3.969),(8.52725279001191,
15.6862403954587,7.04250214260291E-16),(8.52725279001191,15.8168725861898,
-0.992249999999998),(8.52725279001191,16.1998667904646,-1.91687980227065),
(8.52725279001191,16.8091225861898,-2.71087741381022),(8.52725279001191,
17.6031201977293,-3.32013320953536),(8.52725279001191,18.52775,-3.70312741381021),
(8.52725279001191,19.52,-3.83375960454131),(9.4845,16.0827451723796,6.31413468374873E-16),
(9.4845,16.1998667904646,-0.88962701225875),(9.4845,16.54325,-1.71862741381022),
(9.4845,17.0894938027234,-2.43050619727661),(9.4845,17.8013725861898,-2.97675),
(9.4845,18.6303729877413,-3.32013320953536),(9.4845,19.52,-3.43725482762043),
(10.3065068145294,16.7134931854706,5.15546938079801E-16),(10.3065068145294,
16.8091225861898,-0.726377413810218),(10.3065068145294,17.0894938027234,
-1.4032534072647),(10.3065068145294,17.5355,-1.9845),(10.3065068145294,
18.1167465927353,-2.43050619727661),(10.3065068145294,18.7936225861898,
-2.71087741381022),(10.3065068145294,19.52,-2.80650681452941),(10.9372548276204,
17.5355,3.64546735936188E-16),(10.9372548276204,17.6031201977293,-0.513626395005952),
(10.9372548276204,17.8013725861898,-0.99225),(10.9372548276204,18.1167465927353,
-1.4032534072647),(10.9372548276204,18.52775,-1.71862741381022),(10.9372548276204,
19.006373604994,-1.91687980227066),(10.9372548276204,19.52,-1.9845),(11.3337596045413,
18.4927472099881,1.8870327618049E-16),(11.3337596045413,18.52775,-0.265872586189782),
(11.3337596045413,18.6303729877412,-0.513626395005953),(11.3337596045413,
18.7936225861898,-0.726377413810219),(11.3337596045413,19.006373604994,
-0.889627012258752),(11.3337596045413,19.2541274138102,-0.992250000000001),
(11.3337596045413,19.52,-1.02725279001191),(11.469,19.52,4.46440993303868E-32)));
#115=COORDINATES_LIST('',79,((3.531,19.52,-2.43031157290792E-16),(3.66624039545869,
19.52,-1.0272527900119),(3.66624039545869,19.7858725861898,-0.992249999999999),
(3.66624039545869,20.0336263950059,-0.889627012258751),(3.66624039545869,
20.2463774138102,-0.726377413810218),(3.66624039545869,20.4096270122587,
-0.513626395005952),(3.66624039545869,20.51225,-0.265872586189781),(3.66624039545869,
20.5472527900119,-2.28095939916329E-16),(4.06274517237957,19.52,-1.9845),
(4.06274517237957,20.0336263950059,-1.91687980227066),(4.06274517237957,
20.51225,-1.71862741381022),(4.06274517237957,20.9232534072647,-1.4032534072647),
(4.06274517237957,21.2386274138102,-0.99225),(4.06274517237957,21.4368798022707,
-0.513626395005953),(4.06274517237957,21.5045,-4.40647518473724E-16),(4.6934931854706,
19.52,-2.80650681452941),(4.6934931854706,20.2463774138102,-2.71087741381022),
(4.6934931854706,20.9232534072647,-2.43050619727661),(4.6934931854706,21.5045,
-1.9845),(4.6934931854706,21.9505061972766,-1.4032534072647),(4.6934931854706,
22.2308774138102,-0.726377413810219),(4.6934931854706,22.3265068145294,
-6.2316969685159E-16),(5.5155,19.52,-3.43725482762044),(5.5155,20.4096270122587,
-3.32013320953536),(5.5155,21.2386274138102,-2.97675),(5.5155,21.9505061972766,
-2.43050619727661),(5.5155,22.49675,-1.71862741381022),(5.5155,22.8401332095354,
-0.889627012258752),(5.5155,22.9572548276204,-7.63223890225637E-16),(6.4727472099881,
19.52,-3.83375960454131),(6.4727472099881,20.51225,-3.70312741381022),(6.4727472099881,
21.4368798022707,-3.32013320953536),(6.4727472099881,22.2308774138102,-2.71087741381022),
(6.4727472099881,22.8401332095354,-1.91687980227066),(6.4727472099881,23.2231274138102,
-0.992250000000001),(6.4727472099881,23.3537596045413,-8.5126563676792E-16),
(7.5,19.52,-3.969),(7.5,20.5472527900119,-3.83375960454131),(7.5,21.5045,
-3.43725482762044),(7.5,22.3265068145294,-2.80650681452941),(7.5,22.9572548276204,
-1.9845),(7.5,23.3537596045413,-1.02725279001191),(7.5,23.489,-8.8129503694745E-16),
(8.52725279001191,19.52,-3.83375960454131),(8.52725279001191,20.51225,-3.70312741381022),
(8.52725279001191,21.4368798022707,-3.32013320953536),(8.52725279001191,
22.2308774138102,-2.71087741381022),(8.52725279001191,22.8401332095354,
-1.91687980227066),(8.52725279001191,23.2231274138102,-0.992250000000001),
(8.52725279001191,23.3537596045413,-8.5126563676792E-16),(9.4845,19.52,
-3.43725482762044),(9.4845,20.4096270122587,-3.32013320953536),(9.4845,
21.2386274138102,-2.97675),(9.4845,21.9505061972766,-2.43050619727661),
(9.4845,22.49675,-1.71862741381022),(9.4845,22.8401332095354,-0.889627012258752),
(9.4845,22.9572548276204,-7.63223890225637E-16),(10.3065068145294,19.52,
-2.80650681452941),(10.3065068145294,20.2463774138102,-2.71087741381022),
(10.3065068145294,20.9232534072647,-2.43050619727661),(10.3065068145294,
21.5045,-1.9845),(10.3065068145294,21.9505061972766,-1.4032534072647),(10.3065068145294,
22.2308774138102,-0.726377413810219),(10.3065068145294,22.3265068145294,
-6.23169696851591E-16),(10.9372548276204,19.52,-1.9845),(10.9372548276204,
20.0336263950059,-1.91687980227066),(10.9372548276204,20.51225,-1.71862741381022),
(10.9372548276204,20.9232534072647,-1.40325340726471),(10.9372548276204,
21.2386274138102,-0.992250000000001),(10.9372548276204,21.4368798022707,
-0.513626395005953),(10.9372548276204,21.5045,-4.40647518473725E-16),(11.3337596045413,
19.52,-1.02725279001191),(11.3337596045413,19.7858725861898,-0.992250000000002),
(11.3337596045413,20.033626395006,-0.889627012258753),(11.3337596045413,
20.2463774138102,-0.72637741381022),(11.3337596045413,20.4096270122588,
-0.513626395005954),(11.3337596045413,20.51225,-0.265872586189782),(11.3337596045413,
20.5472527900119,-2.2809593991633E-16),(11.469,19.52,-2.43031157290792E-16)));
#116=COORDINATES_LIST('',79,((3.531,19.52,2.43031157290792E-16),(3.66624039545869,
18.4927472099881,2.28095939916329E-16),(3.66624039545869,18.52775,0.265872586189781),
(3.66624039545869,18.6303729877413,0.513626395005952),(3.66624039545869,
18.7936225861898,0.726377413810218),(3.66624039545869,19.006373604994,0.889627012258751),
(3.66624039545869,19.2541274138102,0.992249999999999),(3.66624039545869,
19.52,1.0272527900119),(4.06274517237957,17.5355,4.40647518473724E-16),
(4.06274517237957,17.6031201977293,0.513626395005953),(4.06274517237957,
17.8013725861898,0.99225),(4.06274517237957,18.1167465927353,1.4032534072647),
(4.06274517237957,18.52775,1.71862741381022),(4.06274517237957,19.006373604994,
1.91687980227066),(4.06274517237957,19.52,1.9845),(4.6934931854706,16.7134931854706,
6.2316969685159E-16),(4.6934931854706,16.8091225861898,0.726377413810219),
(4.6934931854706,17.0894938027234,1.4032534072647),(4.6934931854706,17.5355,
1.9845),(4.6934931854706,18.1167465927353,2.43050619727661),(4.6934931854706,
18.7936225861898,2.71087741381022),(4.6934931854706,19.52,2.80650681452941),
(5.5155,16.0827451723796,7.63223890225637E-16),(5.5155,16.1998667904646,
0.889627012258752),(5.5155,16.54325,1.71862741381022),(5.5155,17.0894938027234,
2.43050619727661),(5.5155,17.8013725861898,2.97675),(5.5155,18.6303729877413,
3.32013320953536),(5.5155,19.52,3.43725482762044),(6.4727472099881,15.6862403954587,
8.5126563676792E-16),(6.4727472099881,15.8168725861898,0.992250000000001),
(6.4727472099881,16.1998667904646,1.91687980227066),(6.4727472099881,16.8091225861898,
2.71087741381022),(6.4727472099881,17.6031201977293,3.32013320953536),(6.4727472099881,
18.52775,3.70312741381022),(6.4727472099881,19.52,3.83375960454131),(7.5,
15.551,8.8129503694745E-16),(7.5,15.6862403954587,1.02725279001191),(7.5,
16.0827451723796,1.9845),(7.5,16.7134931854706,2.80650681452941),(7.5,17.5355,
3.43725482762044),(7.5,18.4927472099881,3.83375960454131),(7.5,19.52,3.969),
(8.52725279001191,15.6862403954587,8.5126563676792E-16),(8.52725279001191,
15.8168725861898,0.992250000000001),(8.52725279001191,16.1998667904646,
1.91687980227066),(8.52725279001191,16.8091225861898,2.71087741381022),
(8.52725279001191,17.6031201977293,3.32013320953536),(8.52725279001191,
18.52775,3.70312741381022),(8.52725279001191,19.52,3.83375960454131),(9.4845,
16.0827451723796,7.63223890225637E-16),(9.4845,16.1998667904646,0.889627012258752),
(9.4845,16.54325,1.71862741381022),(9.4845,17.0894938027234,2.43050619727661),
(9.4845,17.8013725861898,2.97675),(9.4845,18.6303729877413,3.32013320953536),
(9.4845,19.52,3.43725482762044),(10.3065068145294,16.7134931854706,6.23169696851591E-16),
(10.3065068145294,16.8091225861898,0.726377413810219),(10.3065068145294,
17.0894938027234,1.4032534072647),(10.3065068145294,17.5355,1.9845),(10.3065068145294,
18.1167465927353,2.43050619727661),(10.3065068145294,18.7936225861898,2.71087741381022),
(10.3065068145294,19.52,2.80650681452941),(10.9372548276204,17.5355,4.40647518473725E-16),
(10.9372548276204,17.6031201977293,0.513626395005953),(10.9372548276204,
17.8013725861898,0.992250000000001),(10.9372548276204,18.1167465927353,
1.40325340726471),(10.9372548276204,18.52775,1.71862741381022),(10.9372548276204,
19.006373604994,1.91687980227066),(10.9372548276204,19.52,1.9845),(11.3337596045413,
18.4927472099881,2.2809593991633E-16),(11.3337596045413,18.52775,0.265872586189782),
(11.3337596045413,18.6303729877412,0.513626395005954),(11.3337596045413,
18.7936225861898,0.72637741381022),(11.3337596045413,19.006373604994,0.889627012258753),
(11.3337596045413,19.2541274138102,0.992250000000002),(11.3337596045413,
19.52,1.02725279001191),(11.469,19.52,2.43031157290792E-16)));
#117=COORDINATES_LIST('',79,((3.531,19.52,-1.48813664434623E-32),(3.66624039545869,
19.52,1.02725279001191),(3.66624039545869,19.7858725861898,0.992250000000001),
(3.66624039545869,20.033626395006,0.889627012258752),(3.66624039545869,
20.2463774138102,0.726377413810219),(3.66624039545869,20.4096270122588,
0.513626395005953),(3.66624039545869,20.51225,0.265872586189782),(3.66624039545869,
20.5472527900119,-6.29010920601635E-17),(4.06274517237957,19.52,1.9845),
(4.06274517237957,20.0336263950059,1.91687980227066),(4.06274517237957,
20.51225,1.71862741381022),(4.06274517237957,20.9232534072647,1.4032534072647),
(4.06274517237957,21.2386274138102,0.99225),(4.06274517237957,21.4368798022707,
0.513626395005952),(4.06274517237957,21.5045,-1.21515578645396E-16),(4.69349318547059,
19.52,2.80650681452941),(4.69349318547059,20.2463774138102,2.71087741381022),
(4.69349318547059,20.9232534072647,2.43050619727661),(4.69349318547059,
21.5045,1.9845),(4.69349318547059,21.9505061972766,1.4032534072647),(4.69349318547059,
22.2308774138102,0.726377413810218),(4.69349318547059,22.3265068145294,
-1.71848979359934E-16),(5.5155,19.52,3.43725482762044),(5.5155,20.4096270122588,
3.32013320953536),(5.5155,21.2386274138102,2.97675),(5.5155,21.9505061972766,
2.43050619727661),(5.5155,22.49675,1.71862741381022),(5.5155,22.8401332095354,
0.889627012258751),(5.5155,22.9572548276204,-2.10471156124958E-16),(6.4727472099881,
19.52,3.83375960454132),(6.4727472099881,20.51225,3.70312741381022),(6.4727472099881,
21.4368798022707,3.32013320953536),(6.4727472099881,22.2308774138102,2.71087741381022),
(6.4727472099881,22.8401332095354,1.91687980227066),(6.4727472099881,23.2231274138102,
0.992250000000001),(6.4727472099881,23.3537596045413,-2.34750071420097E-16),
(7.5,19.52,3.969),(7.5,20.5472527900119,3.83375960454132),(7.5,21.5045,
3.43725482762044),(7.5,22.3265068145294,2.80650681452941),(7.5,22.9572548276204,
1.9845),(7.5,23.3537596045413,1.02725279001191),(7.5,23.489,-2.43031157290792E-16),
(8.52725279001191,19.52,3.83375960454132),(8.52725279001191,20.51225,3.70312741381022),
(8.52725279001191,21.4368798022707,3.32013320953536),(8.52725279001191,
22.2308774138102,2.71087741381022),(8.52725279001191,22.8401332095354,1.91687980227066),
(8.52725279001191,23.2231274138102,0.992250000000001),(8.52725279001191,
23.3537596045413,-2.34750071420097E-16),(9.4845,19.52,3.43725482762044),
(9.4845,20.4096270122588,3.32013320953536),(9.4845,21.2386274138102,2.97675),
(9.4845,21.9505061972766,2.43050619727661),(9.4845,22.49675,1.71862741381022),
(9.4845,22.8401332095354,0.889627012258752),(9.4845,22.9572548276204,-2.10471156124958E-16),
(10.3065068145294,19.52,2.80650681452941),(10.3065068145294,20.2463774138102,
2.71087741381022),(10.3065068145294,20.9232534072647,2.43050619727661),
(10.3065068145294,21.5045,1.9845),(10.3065068145294,21.9505061972766,1.4032534072647),
(10.3065068145294,22.2308774138102,0.726377413810219),(10.3065068145294,
22.3265068145294,-1.71848979359934E-16),(10.9372548276204,19.52,1.9845),
(10.9372548276204,20.033626395006,1.91687980227066),(10.9372548276204,20.51225,
1.71862741381022),(10.9372548276204,20.9232534072647,1.40325340726471),
(10.9372548276204,21.2386274138102,0.992250000000002),(10.9372548276204,
21.4368798022707,0.513626395005953),(10.9372548276204,21.5045,-1.21515578645396E-16),
(11.3337596045413,19.52,1.02725279001191),(11.3337596045413,19.7858725861898,
0.992250000000001),(11.3337596045413,20.033626395006,0.889627012258752),
(11.3337596045413,20.2463774138102,0.726377413810219),(11.3337596045413,
20.4096270122588,0.513626395005953),(11.3337596045413,20.51225,0.265872586189782),
(11.3337596045413,20.5472527900119,-6.29010920601634E-17),(11.469,19.52,
-1.48813664434623E-32)));
#118=TESSELLATED_SHELL('_SKF_6205-2Z_PART3',(#110),$);
#119=TESSELLATED_SHELL('_SKF_6205-2Z_PART3',(#111),$);
#120=TESSELLATED_SHELL('_SKF_6205-2Z_PART3',(#112),$);
#121=TESSELLATED_SHELL('_SKF_6205-2Z_PART3',(#113),$);
#122=SHAPE_DEFINITION_REPRESENTATION(#274,#123);
#123=SHAPE_REPRESENTATION('000680_A;1-SKF_6306-2Z7097_Prt3',(#124),#269);
#124=AXIS2_PLACEMENT_3D('',#159,#141,#142);
#125=AXIS2_PLACEMENT_3D('',#165,#143,#144);
#126=AXIS2_PLACEMENT_3D('',#167,#143,#144);
#127=AXIS2_PLACEMENT_3D('',#168,#145,#146);
#128=AXIS2_PLACEMENT_3D('',#170,#145,#146);
#129=AXIS2_PLACEMENT_3D('',#171,#147,#148);
#130=AXIS2_PLACEMENT_3D('',#173,#147,#148);
#131=AXIS2_PLACEMENT_3D('',#174,#149,#150);
#132=AXIS2_PLACEMENT_3D('',#176,#149,#150);
#133=AXIS2_PLACEMENT_3D('',#177,#151,#152);
#134=AXIS2_PLACEMENT_3D('',#179,#151,#152);
#135=AXIS2_PLACEMENT_3D('',#180,#153,#154);
#136=AXIS2_PLACEMENT_3D('',#182,#153,#154);
#137=AXIS2_PLACEMENT_3D('',#183,#155,#156);
#138=AXIS2_PLACEMENT_3D('',#185,#155,#156);
#139=AXIS2_PLACEMENT_3D('',#186,#157,#158);
#140=AXIS2_PLACEMENT_3D('',#188,#157,#158);
#141=DIRECTION('',(0.,0.,1.));
#142=DIRECTION('',(1.,0.,0.));
#143=DIRECTION('',(0.,0.,1.));
#144=DIRECTION('',(1.,0.,0.));
#145=DIRECTION('',(0.,-1.,0.));
#146=DIRECTION('',(1.,0.,0.));
#147=DIRECTION('',(1.,0.,0.));
#148=DIRECTION('',(0.,1.,0.));
#149=DIRECTION('',(0.,1.,0.));
#150=DIRECTION('',(-1.,0.,0.));
#151=DIRECTION('',(0.,0.,-1.));
#152=DIRECTION('',(1.,0.,0.));
#153=DIRECTION('',(-1.,0.,0.));
#154=DIRECTION('',(0.,-1.,0.));
#155=DIRECTION('',(0.577350269189626,-0.577350269189626,0.577350269189626));
#156=DIRECTION('',(0.707106765322401,0.707106797050693,3.17282912720707E-8));
#157=DIRECTION('',(0.718873086818576,-0.585048618558824,0.375419230954334));
#158=DIRECTION('',(0.631219072032975,0.775604591980882,-2.04699331651792E-8));
#159=CARTESIAN_POINT('',(0.,0.,0.));
#160=CARTESIAN_POINT('centre point',(0.,0.,0.));
#161=CARTESIAN_POINT('centre point',(0.,0.,0.));
#162=CARTESIAN_POINT('centre point',(0.,0.,0.));
#163=CARTESIAN_POINT('centre point',(0.,0.,0.));
#164=CARTESIAN_POINT('centre point',(0.,0.,0.));
#165=CARTESIAN_POINT('',(0.,0.,0.));
#166=CARTESIAN_POINT('',(0.,0.,0.114998954772949));
#167=CARTESIAN_POINT('',(-0.0286724596639962,-0.0286724596639962,0.));
#168=CARTESIAN_POINT('',(0.,0.0195200004577637,0.));
#169=CARTESIAN_POINT('',(0.,-1.09252941894531,0.));
#170=CARTESIAN_POINT('',(-0.277265060236054,-0.257745059778291,0.));
#171=CARTESIAN_POINT('',(0.0075,0.,0.));
#172=CARTESIAN_POINT('',(1.11954943847656,0.,0.));
#173=CARTESIAN_POINT('',(-0.269765064991609,-0.277265064991609,0.));
#174=CARTESIAN_POINT('',(0.,0.0195200004577637,0.));
#175=CARTESIAN_POINT('',(0.,1.1315693359375,0.));
#176=CARTESIAN_POINT('',(-0.277265039311616,-0.257745038853852,0.));
#177=CARTESIAN_POINT('',(0.,0.,0.));
#178=CARTESIAN_POINT('',(0.,0.,-0.114998954772949));
#179=CARTESIAN_POINT('',(-0.0286724596639962,-0.0286724596639962,0.));
#180=CARTESIAN_POINT('',(0.0075,0.,0.));
#181=CARTESIAN_POINT('',(-1.10454943847656,0.,0.));
#182=CARTESIAN_POINT('',(-0.269765064991609,-0.277265064991609,0.));
#183=CARTESIAN_POINT('',(-0.00400666666030884,0.00400666666030884,-0.00400666666030884));
#184=CARTESIAN_POINT('',(0.625836669921875,-0.625836669921875,0.625836669921875));
#185=CARTESIAN_POINT('',(-0.276003735465023,-0.267990402144406,-0.00400666666030884));
#186=CARTESIAN_POINT('',(0.,0.,0.));
#187=CARTESIAN_POINT('',(0.830263606434755,-0.67570282556274,0.433591033427811));
#188=CARTESIAN_POINT('',(-0.287961769884626,-0.287961769884626,0.));
#189=INTEGER_REPRESENTATION_ITEM('',0.);
#190=INTEGER_REPRESENTATION_ITEM('',1.);
#191=INTEGER_REPRESENTATION_ITEM('number of views',8.);
#192=PROPERTY_DEFINITION_REPRESENTATION(#242,#208);
#193=PROPERTY_DEFINITION_REPRESENTATION(#243,#209);
#194=PROPERTY_DEFINITION_REPRESENTATION(#244,#210);
#195=PROPERTY_DEFINITION_REPRESENTATION(#245,#211);
#196=PROPERTY_DEFINITION_REPRESENTATION(#246,#212);
#197=PROPERTY_DEFINITION_REPRESENTATION(#247,#213);
#198=PROPERTY_DEFINITION_REPRESENTATION(#248,#214);
#199=PROPERTY_DEFINITION_REPRESENTATION(#249,#215);
#200=PROPERTY_DEFINITION_REPRESENTATION(#250,#216);
#201=PROPERTY_DEFINITION_REPRESENTATION(#251,#217);
#202=PROPERTY_DEFINITION_REPRESENTATION(#252,#218);
#203=PROPERTY_DEFINITION_REPRESENTATION(#253,#219);
#204=PROPERTY_DEFINITION_REPRESENTATION(#254,#220);
#205=PROPERTY_DEFINITION_REPRESENTATION(#255,#221);
#206=PROPERTY_DEFINITION_REPRESENTATION(#256,#222);
#207=PROPERTY_DEFINITION_REPRESENTATION(#257,#223);
#208=REPRESENTATION('',(#224),#269);
#209=REPRESENTATION('',(#225),#269);
#210=REPRESENTATION('',(#226),#269);
#211=REPRESENTATION('',(#227),#269);
#212=REPRESENTATION('',(#228),#269);
#213=REPRESENTATION('',(#229),#269);
#214=REPRESENTATION('',(#230),#269);
#215=REPRESENTATION('',(#231),#269);
#216=REPRESENTATION('',(#189),#269);
#217=REPRESENTATION('',(#190),#269);
#218=REPRESENTATION('',(#160),#269);
#219=REPRESENTATION('',(#161),#269);
#220=REPRESENTATION('',(#162),#269);
#221=REPRESENTATION('',(#163),#269);
#222=REPRESENTATION('',(#164),#269);
#223=REPRESENTATION('',(#191),#269);
#224=DESCRIPTIVE_REPRESENTATION_ITEM('','1');
#225=DESCRIPTIVE_REPRESENTATION_ITEM('',
'000680_A;1-SKF_6306-2Z7097_Prt3');
#226=DESCRIPTIVE_REPRESENTATION_ITEM('','000680');
#227=DESCRIPTIVE_REPRESENTATION_ITEM('','A');
#228=DESCRIPTIVE_REPRESENTATION_ITEM('','SKF_6306-2Z7097_Prt3');
#229=DESCRIPTIVE_REPRESENTATION_ITEM('','000680');
#230=DESCRIPTIVE_REPRESENTATION_ITEM('','Item');
#231=DESCRIPTIVE_REPRESENTATION_ITEM('','000680');
#232=GENERAL_PROPERTY_ASSOCIATION('',$,#258,#242);
#233=GENERAL_PROPERTY_ASSOCIATION('',$,#259,#243);
#234=GENERAL_PROPERTY_ASSOCIATION('',$,#260,#244);
#235=GENERAL_PROPERTY_ASSOCIATION('',$,#261,#245);
#236=GENERAL_PROPERTY_ASSOCIATION('',$,#262,#246);
#237=GENERAL_PROPERTY_ASSOCIATION('',$,#263,#247);
#238=GENERAL_PROPERTY_ASSOCIATION('',$,#264,#248);
#239=GENERAL_PROPERTY_ASSOCIATION('',$,#265,#249);
#240=GENERAL_PROPERTY_ASSOCIATION('',$,#266,#250);
#241=GENERAL_PROPERTY_ASSOCIATION('',$,#267,#251);
#242=PROPERTY_DEFINITION('LAYER',$,#275);
#243=PROPERTY_DEFINITION('Name',$,#275);
#244=PROPERTY_DEFINITION('DB_PART_DESC',$,#275);
#245=PROPERTY_DEFINITION('DB_PART_REV',$,#275);
#246=PROPERTY_DEFINITION('DB_PART_NAME',$,#275);
#247=PROPERTY_DEFINITION('DB_PART_NO',$,#275);
#248=PROPERTY_DEFINITION('DB_PART_TYPE',$,#275);
#249=PROPERTY_DEFINITION('DB_PART_MFKID',$,#275);
#250=PROPERTY_DEFINITION('NX_MaterialMultipleAssigned',$,#275);
#251=PROPERTY_DEFINITION('NX_MaterialMissingAssignments',$,#275);
#252=PROPERTY_DEFINITION('geometric validation property','',#69);
#253=PROPERTY_DEFINITION('geometric validation property','',#70);
#254=PROPERTY_DEFINITION('geometric validation property','',#71);
#255=PROPERTY_DEFINITION('geometric validation property','',#72);
#256=PROPERTY_DEFINITION('geometric validation property','',#274);
#257=PROPERTY_DEFINITION('pmi validation property','',#274);
#258=GENERAL_PROPERTY('','LAYER',$);
#259=GENERAL_PROPERTY('','Name',$);
#260=GENERAL_PROPERTY('','DB_PART_DESC',$);
#261=GENERAL_PROPERTY('','DB_PART_REV',$);
#262=GENERAL_PROPERTY('','DB_PART_NAME',$);
#263=GENERAL_PROPERTY('','DB_PART_NO',$);
#264=GENERAL_PROPERTY('','DB_PART_TYPE',$);
#265=GENERAL_PROPERTY('','DB_PART_MFKID',$);
#266=GENERAL_PROPERTY('','NX_MaterialMultipleAssigned',$);
#267=GENERAL_PROPERTY('','NX_MaterialMissingAssignments',$);
#268=MECHANICAL_DESIGN_GEOMETRIC_PRESENTATION_REPRESENTATION('',(#81,#82,
#83,#84),#269);
#269=(
GEOMETRIC_REPRESENTATION_CONTEXT(3)
GLOBAL_UNCERTAINTY_ASSIGNED_CONTEXT((#270))
GLOBAL_UNIT_ASSIGNED_CONTEXT((#273,#272,#271))
REPRESENTATION_CONTEXT('000680_A;1-SKF_6306-2Z7097_Prt3',
'TOP_LEVEL_ASSEMBLY_PART')
);
#270=UNCERTAINTY_MEASURE_WITH_UNIT(LENGTH_MEASURE(0.005),#273,
'DISTANCE_ACCURACY_VALUE','Maximum Tolerance applied to model');
#271=(
NAMED_UNIT(*)
SI_UNIT($,.STERADIAN.)
SOLID_ANGLE_UNIT()
);
#272=(
NAMED_UNIT(*)
PLANE_ANGLE_UNIT()
SI_UNIT($,.RADIAN.)
);
#273=(
LENGTH_UNIT()
NAMED_UNIT(*)
SI_UNIT(.MILLI.,.METRE.)
);
#274=PRODUCT_DEFINITION_SHAPE('','',#275);
#275=PRODUCT_DEFINITION('','',#277,#276);
#276=PRODUCT_DEFINITION_CONTEXT('',#283,'design');
#277=PRODUCT_DEFINITION_FORMATION_WITH_SPECIFIED_SOURCE('','',#279,
 .NOT_KNOWN.);
#278=PRODUCT_RELATED_PRODUCT_CATEGORY('','',(#279));
#279=PRODUCT('000680_A;1-SKF_6306-2Z7097_Prt3',
'000680_A;1-SKF_6306-2Z7097_Prt3','000680_A;1-SKF_6306-2Z7097_Prt3',(#281));
#280=PRODUCT_CATEGORY('','');
#281=PRODUCT_CONTEXT('',#283,'mechanical');
#282=APPLICATION_PROTOCOL_DEFINITION('international standard',
'ap242_managed_model_based_3d_engineering',2011,#283);
#283=APPLICATION_CONTEXT('managed model based 3d engineering');
ENDSEC;
END-ISO-10303-21;
